<svg xmlns="http://www.w3.org/2000/svg" xmlns:xlink="http://www.w3.org/1999/xlink" width="500" zoomAndPan="magnify" viewBox="0 0 375 374.999991" height="500" preserveAspectRatio="xMidYMid meet" version="1.0"><defs><g/><clipPath id="12cc232a90"><path d="M 53.125 53.125 L 321.875 53.125 L 321.875 321.875 L 53.125 321.875 Z M 53.125 53.125 " clip-rule="nonzero"/></clipPath><clipPath id="6cff1a0ec0"><path d="M 187.5 53.125 C 113.285156 53.125 53.125 113.285156 53.125 187.5 C 53.125 261.714844 113.285156 321.875 187.5 321.875 C 261.714844 321.875 321.875 261.714844 321.875 187.5 C 321.875 113.285156 261.714844 53.125 187.5 53.125 Z M 187.5 53.125 " clip-rule="nonzero"/></clipPath><clipPath id="b74e5f713f"><path d="M 0.125 0.125 L 268.875 0.125 L 268.875 268.875 L 0.125 268.875 Z M 0.125 0.125 " clip-rule="nonzero"/></clipPath><clipPath id="0dd16ef348"><path d="M 134.5 0.125 C 60.285156 0.125 0.125 60.285156 0.125 134.5 C 0.125 208.714844 60.285156 268.875 134.5 268.875 C 208.714844 268.875 268.875 208.714844 268.875 134.5 C 268.875 60.285156 208.714844 0.125 134.5 0.125 Z M 134.5 0.125 " clip-rule="nonzero"/></clipPath><clipPath id="50d878e51d"><rect x="0" width="269" y="0" height="269"/></clipPath><clipPath id="404b724fbd"><rect x="0" width="155" y="0" height="65"/></clipPath><clipPath id="9b5453f211"><path d="M 167 95.75 L 209 95.75 L 209 113 L 167 113 Z M 167 95.75 " clip-rule="nonzero"/></clipPath><clipPath id="d4a96b04f8"><path d="M 230 134 L 247.359375 134 L 247.359375 176 L 230 176 Z M 230 134 " clip-rule="nonzero"/></clipPath><clipPath id="9da87b0d46"><rect x="0" width="146" y="0" height="71"/></clipPath><clipPath id="d29c7df79c"><path d="M 132.441406 194.292969 L 242.691406 194.292969 L 242.691406 225.042969 L 132.441406 225.042969 Z M 132.441406 194.292969 " clip-rule="nonzero"/></clipPath><clipPath id="d4f6903909"><rect x="0" width="92" y="0" height="38"/></clipPath></defs><g clip-path="url(#12cc232a90)"><g clip-path="url(#6cff1a0ec0)"><g transform="matrix(1, 0, 0, 1, 53, 53)"><g clip-path="url(#50d878e51d)"><g clip-path="url(#b74e5f713f)"><g clip-path="url(#0dd16ef348)"><path fill="#dbc3b8" d="M 0.125 0.125 L 268.875 0.125 L 268.875 268.875 L 0.125 268.875 Z M 0.125 0.125 " fill-opacity="1" fill-rule="nonzero"/></g></g></g></g></g></g><g transform="matrix(1, 0, 0, 1, 110, 50)"><g clip-path="url(#404b724fbd)"><g fill="#8f3013" fill-opacity="1"><g transform="translate(20.738688, 58.090645)"><g><path d="M 7.6875 -7.890625 C 5.757812 -5.816406 3.835938 -4.554688 1.921875 -4.109375 C 0.015625 -3.660156 -1.742188 -4.066406 -3.359375 -5.328125 L -1.640625 -7.1875 C -0.285156 -6.125 1.066406 -5.722656 2.421875 -5.984375 C 3.773438 -6.242188 5.191406 -7.164062 6.671875 -8.75 C 7.972656 -10.164062 8.722656 -11.476562 8.921875 -12.6875 C 9.128906 -13.90625 8.773438 -14.9375 7.859375 -15.78125 C 7.304688 -16.289062 6.710938 -16.570312 6.078125 -16.625 C 5.441406 -16.6875 4.65625 -16.503906 3.71875 -16.078125 C 2.78125 -15.648438 1.613281 -14.921875 0.21875 -13.890625 C -2.007812 -12.253906 -3.898438 -11.21875 -5.453125 -10.78125 C -7.003906 -10.34375 -8.332031 -10.632812 -9.4375 -11.65625 C -10.675781 -12.8125 -11.078125 -14.253906 -10.640625 -15.984375 C -10.203125 -17.722656 -9.109375 -19.53125 -7.359375 -21.40625 C -5.585938 -23.320312 -3.867188 -24.492188 -2.203125 -24.921875 C -0.535156 -25.359375 0.984375 -25.097656 2.359375 -24.140625 L 0.65625 -22.296875 C -0.550781 -23.035156 -1.734375 -23.234375 -2.890625 -22.890625 C -4.046875 -22.546875 -5.25 -21.695312 -6.5 -20.34375 C -7.707031 -19.039062 -8.410156 -17.851562 -8.609375 -16.78125 C -8.816406 -15.71875 -8.546875 -14.832031 -7.796875 -14.125 C -7.335938 -13.707031 -6.832031 -13.476562 -6.28125 -13.4375 C -5.726562 -13.40625 -5.015625 -13.59375 -4.140625 -14 C -3.273438 -14.414062 -2.160156 -15.113281 -0.796875 -16.09375 C 0.878906 -17.300781 2.3125 -18.1875 3.5 -18.75 C 4.695312 -19.320312 5.789062 -19.566406 6.78125 -19.484375 C 7.769531 -19.410156 8.707031 -18.96875 9.59375 -18.15625 C 10.882812 -16.957031 11.351562 -15.441406 11 -13.609375 C 10.644531 -11.785156 9.539062 -9.878906 7.6875 -7.890625 Z M 7.6875 -7.890625 "/></g></g></g><g fill="#8f3013" fill-opacity="1"><g transform="translate(40.275058, 38.770257)"><g><path d="M 12.671875 -11.15625 L 2.3125 -6.59375 L 2.03125 -0.890625 L 0.234375 -0.09375 L 1.546875 -22.5 L 2.9375 -23.109375 L 19.78125 -8.71875 L 16.921875 -7.453125 Z M 11.53125 -12.15625 L 2.9375 -19.65625 L 2.375 -8.125 Z M 11.53125 -12.15625 "/></g></g></g><g fill="#8f3013" fill-opacity="1"><g transform="translate(66.273612, 28.700678)"><g><path d="M 1.953125 -19.6875 L 4.90625 -19.703125 L 16.96875 -4.515625 L 16.875 -19.78125 L 19.34375 -19.796875 L 19.46875 -0.125 L 18.015625 -0.109375 L 4.4375 -17.140625 L 4.546875 -0.03125 L 2.078125 -0.015625 Z M 1.953125 -19.6875 "/></g></g></g><g fill="#8f3013" fill-opacity="1"><g transform="translate(93.857119, 29.886039)"><g><path d="M 14.890625 -13.6875 L 7.203125 -16.84375 L 7.71875 -18.09375 L 25.78125 -10.671875 L 25.265625 -9.421875 L 17.59375 -12.578125 L 10.625 4.359375 L 7.921875 3.25 Z M 14.890625 -13.6875 "/></g></g></g><g fill="#8f3013" fill-opacity="1"><g transform="translate(117.645947, 40.546365)"><g><path d="M 8.234375 8.953125 C 6.691406 7.359375 5.660156 5.707031 5.140625 4 C 4.628906 2.300781 4.628906 0.617188 5.140625 -1.046875 C 5.660156 -2.710938 6.691406 -4.285156 8.234375 -5.765625 C 9.734375 -7.222656 11.316406 -8.171875 12.984375 -8.609375 C 14.660156 -9.046875 16.332031 -8.960938 18 -8.359375 C 19.664062 -7.753906 21.269531 -6.65625 22.8125 -5.0625 C 24.34375 -3.46875 25.375 -1.828125 25.90625 -0.140625 C 26.4375 1.535156 26.445312 3.195312 25.9375 4.84375 C 25.4375 6.5 24.4375 8.054688 22.9375 9.515625 C 21.394531 10.992188 19.78125 11.957031 18.09375 12.40625 C 16.414062 12.863281 14.734375 12.800781 13.046875 12.21875 C 11.367188 11.632812 9.765625 10.546875 8.234375 8.953125 Z M 9.203125 8.03125 C 10.890625 9.78125 12.75 10.601562 14.78125 10.5 C 16.8125 10.394531 18.847656 9.363281 20.890625 7.40625 C 22.878906 5.476562 23.957031 3.515625 24.125 1.515625 C 24.289062 -0.472656 23.523438 -2.351562 21.828125 -4.125 C 20.117188 -5.894531 18.269531 -6.738281 16.28125 -6.65625 C 14.289062 -6.570312 12.289062 -5.5625 10.28125 -3.625 C 8.238281 -1.664062 7.117188 0.320312 6.921875 2.34375 C 6.734375 4.363281 7.492188 6.257812 9.203125 8.03125 Z M 9.203125 8.03125 "/></g></g></g></g></g><path fill="#8f3013" d="M 178.320312 231.886719 C 179.285156 233.054688 179.507812 233.253906 179.75 233.113281 C 179.898438 233.121094 180.035156 233.058594 180.183594 232.9375 C 181.003906 232.253906 180.929688 231.667969 179.75 229.535156 C 177.652344 225.753906 177.96875 221.734375 180.597656 218.664062 C 185.714844 212.683594 190.742188 217.027344 191.90625 214.523438 C 193.207031 212 182.539062 211.265625 178.164062 217.78125 C 175.214844 222.171875 175.28125 228.195312 178.320312 231.886719 Z M 178.320312 231.886719 " fill-opacity="1" fill-rule="nonzero"/><path fill="#8f3013" d="M 182.167969 206.089844 C 183.078125 206.683594 183.230469 206.667969 184.082031 205.875 C 184.488281 205.496094 185.167969 204.597656 184.953125 203.882812 C 184.941406 203.351562 183.707031 202.085938 181.929688 202.085938 C 178.03125 202.085938 177.566406 208.675781 179.507812 212.769531 C 179.929688 213.65625 180.0625 213.941406 180.429688 213.863281 C 180.984375 214.066406 181.519531 213.503906 181.621094 213.230469 C 182.160156 212.6875 180.5 207.21875 180.914062 206.136719 C 181.15625 205.507812 181.273438 205.503906 182.167969 206.089844 Z M 182.167969 206.089844 " fill-opacity="1" fill-rule="nonzero"/><path fill="#8f3013" d="M 184.328125 216.96875 C 184.1875 216.757812 183.800781 217.007812 183.597656 217.167969 C 183.058594 217.4375 182.464844 217.910156 182.464844 218.191406 C 182.464844 218.425781 184.507812 221.75 187 225.582031 C 189.496094 229.414062 191.601562 232.546875 191.683594 232.546875 C 192.117188 232.546875 193.464844 231.621094 193.464844 231.324219 C 193.464844 231.046875 184.679688 217.046875 184.328125 216.972656 Z M 184.328125 216.96875 " fill-opacity="1" fill-rule="nonzero"/><path fill="#8f3013" d="M 226.582031 151.597656 L 226.320312 151.308594 L 226.207031 151.417969 C 225.894531 151.320312 225.75 151.445312 225.050781 152.078125 C 224.070312 152.96875 221.746094 154.503906 220.4375 155.269531 L 220.472656 155.289062 L 220.46875 155.289062 C 221.714844 155.925781 224.003906 157.007812 224.945312 158.046875 L 224.941406 158.046875 C 225.550781 158.71875 226.046875 158.992188 226.519531 158.875 C 226.914062 158.890625 227.488281 158.140625 227.554688 157.890625 C 227.6875 157.800781 227.746094 157.832031 227.554688 157.574219 C 227.433594 157.132812 226.886719 156.621094 225.460938 155.128906 C 225.742188 154.835938 227.15625 153.375 227.40625 153.058594 C 227.5 153.039062 227.542969 152.976562 227.535156 152.875 C 227.90625 152.253906 227.328125 151.910156 226.582031 151.597656 Z M 226.582031 151.597656 " fill-opacity="1" fill-rule="nonzero"/><path fill="#8f3013" d="M 192.503906 177.570312 C 192.207031 177.488281 190.648438 177.9375 190.21875 179.433594 C 190.085938 179.753906 190.019531 179.835938 190.15625 180.152344 C 190.238281 180.972656 190.855469 181.773438 191.96875 182.234375 C 194.085938 183.117188 198.886719 181.414062 197.6875 173.910156 C 197.027344 169.769531 196.820312 169.457031 195.421875 170.480469 C 195.414062 170.484375 195.394531 170.5 195.394531 170.5 C 193.972656 171.539062 196.1875 173.480469 195.230469 177.894531 C 194.410156 180.757812 193.488281 177.542969 192.503906 177.570312 Z M 192.503906 177.570312 " fill-opacity="1" fill-rule="nonzero"/><path fill="#8f3013" d="M 185.5625 259.328125 C 187.367188 257.132812 187.191406 257.261719 188.066406 256.613281 C 188.089844 256.632812 189.246094 257.890625 189.265625 257.910156 C 190.542969 259.300781 190.632812 259.332031 191.191406 258.570312 C 192.625 256.609375 190.941406 257.152344 188.039062 251.492188 C 184.957031 257.511719 183.71875 256.695312 184.878906 258.351562 Z M 185.5625 259.328125 " fill-opacity="1" fill-rule="nonzero"/><path fill="#8f3013" d="M 197.175781 165.109375 C 192.371094 169.449219 188.707031 168.160156 184.46875 168.523438 C 183.535156 168.359375 183.25 168.269531 183.144531 169.015625 C 182.457031 170.257812 183.460938 170.710938 184.792969 170.898438 C 191.617188 171.871094 197.40625 169.207031 201.046875 164.558594 C 198.84375 163.554688 199.132812 163.339844 197.175781 165.109375 Z M 197.175781 165.109375 " fill-opacity="1" fill-rule="nonzero"/><path fill="#8f3013" d="M 196.28125 236.230469 C 195.785156 235.011719 195.777344 235.007812 194.808594 235.792969 C 193.726562 236.667969 193.988281 236.863281 194.492188 238.527344 C 194.59375 238.96875 195.511719 243.445312 194.90625 243.820312 C 194.773438 243.796875 194.589844 243.699219 194.332031 243.5625 C 194.015625 243.394531 193.699219 243.292969 193.394531 243.253906 C 192.875 243.03125 192.667969 243.136719 192.5 243.265625 C 191.59375 243.371094 190.195312 245 191.578125 246.53125 C 192.492188 247.539062 194.609375 247.613281 195.898438 246.707031 C 198.402344 244.953125 197.445312 239.078125 196.28125 236.230469 Z M 196.28125 236.230469 " fill-opacity="1" fill-rule="nonzero"/><path fill="#8f3013" d="M 219.464844 146.664062 C 220.765625 147.488281 222.855469 147.457031 223.457031 146.859375 C 223.878906 146.4375 221.1875 144.589844 219.0625 143.84375 C 214.664062 142.296875 209.925781 143.714844 209.332031 143.8125 L 209.429688 143.847656 L 208.90625 144.007812 C 214.503906 145.632812 217.601562 145.484375 219.464844 146.664062 Z M 219.464844 146.664062 " fill-opacity="1" fill-rule="nonzero"/><path fill="#8f3013" d="M 179.554688 262.160156 C 179.816406 262.167969 181.589844 262.199219 181.617188 261.929688 C 181.777344 261.277344 180.726562 260.046875 179.699219 260.046875 C 175.5625 260.046875 186.960938 254.742188 185.796875 253.5625 C 185.53125 252.71875 179.015625 255.910156 178.246094 256.441406 C 176.179688 257.875 175.417969 259.769531 176.339844 261.175781 C 176.890625 262.015625 177.347656 262.1875 179.554688 262.160156 Z M 179.554688 262.160156 " fill-opacity="1" fill-rule="nonzero"/><path fill="#8f3013" d="M 184.503906 271.554688 C 186.59375 273.535156 186.867188 273.675781 187.128906 272.933594 C 187.523438 271.828125 187.230469 271.085938 185.8125 269.5625 C 181.898438 265.378906 184.445312 262.144531 182.191406 262.621094 C 181.796875 262.566406 180.773438 263.289062 180.773438 264.3125 C 180.773438 266.539062 182.269531 269.441406 184.503906 271.554688 Z M 184.503906 271.554688 " fill-opacity="1" fill-rule="nonzero"/><path fill="#8f3013" d="M 179.289062 255.042969 C 180.070312 253.136719 180.351562 252.898438 179.5 251.191406 C 178.101562 248.390625 177.367188 240.050781 176.75 242.03125 C 176.316406 242.71875 174.890625 250.28125 178.378906 254.058594 Z M 179.289062 255.042969 " fill-opacity="1" fill-rule="nonzero"/><path fill="#8f3013" d="M 230.726562 161.574219 C 230.722656 161.5625 230.722656 161.550781 230.683594 161.550781 C 230.0625 161.246094 228.363281 162.664062 228.78125 163.984375 C 228.84375 164.171875 228.882812 164.332031 228.90625 164.457031 C 228.828125 164.679688 228.703125 164.773438 228.53125 164.734375 C 227.035156 163.574219 223.398438 157.097656 222.71875 157.550781 L 222.246094 157.03125 C 222.761719 158.8125 223.800781 164.609375 227.027344 166.578125 C 231.9375 169.570312 231.632812 162.136719 230.726562 161.574219 Z M 230.726562 161.574219 " fill-opacity="1" fill-rule="nonzero"/><path fill="#8f3013" d="M 229.160156 149.347656 C 228.261719 148.664062 227.886719 148.394531 227.601562 148.460938 L 227.378906 148.324219 L 227.25 148.730469 C 225.644531 150.664062 227.035156 150.40625 228.390625 151.777344 C 231.761719 155.449219 227.589844 159.195312 227.132812 159.886719 C 226.945312 159.710938 226.867188 159.921875 226.90625 160.296875 C 226.78125 160.597656 226.789062 160.839844 226.898438 161.082031 C 226.925781 161.285156 227.015625 161.464844 227.167969 161.617188 C 228.894531 163.34375 236.058594 154.609375 229.160156 149.351562 Z M 229.160156 149.347656 " fill-opacity="1" fill-rule="nonzero"/><path fill="#8f3013" d="M 231.542969 149.601562 C 231.390625 150.351562 232.097656 150.476562 232.824219 150.476562 C 236.960938 150.476562 239.070312 154.652344 241.390625 154.691406 C 242.550781 154.707031 242.554688 154.695312 241.929688 153.480469 C 239.792969 149.351562 231.617188 146.203125 231.542969 149.601562 Z M 231.542969 149.601562 " fill-opacity="1" fill-rule="nonzero"/><path fill="#8f3013" d="M 240.613281 155.578125 C 240.460938 155.507812 240.292969 155.582031 240.152344 155.675781 C 239.71875 155.816406 239.433594 156.089844 239.183594 156.554688 C 238.507812 157.816406 235.75 159.390625 233.1875 159.972656 C 231.785156 160.292969 231.277344 160.242188 231.445312 160.828125 C 231.445312 160.972656 231.5 161.144531 231.582031 161.371094 C 232.375 163.507812 237.617188 161.777344 240.742188 158.375 C 242.023438 156.980469 241.3125 157.585938 242.671875 156.226562 L 242.472656 156.175781 C 242.785156 155.566406 241.273438 155.503906 240.613281 155.578125 Z M 240.613281 155.578125 " fill-opacity="1" fill-rule="nonzero"/><path fill="#8f3013" d="M 211.0625 158.125 C 210.644531 158.480469 210.4375 158.855469 210.4375 159.269531 C 210.25 159.847656 210.660156 160.230469 212.113281 161.777344 C 212.070312 161.84375 212.019531 161.90625 211.960938 161.964844 C 211 162.332031 210.492188 162.566406 209.5 162.679688 C 202.828125 163.183594 189.789062 154.75 189.671875 154.554688 C 195.019531 145.234375 199.191406 137.734375 197.429688 131.8125 C 195.957031 126.851562 190.910156 127.277344 190.132812 130.246094 C 190.050781 130.269531 190.039062 130.375 190.082031 130.527344 C 190.003906 131.398438 190.625 132.191406 191.898438 132.675781 C 192.941406 133.070312 193.117188 133.003906 193.546875 132.066406 C 194.21875 130.589844 194.601562 130.871094 195.117188 132.347656 C 195.28125 132.824219 195.28125 132.445312 195.316406 136.976562 C 194.617188 140.34375 188.457031 152.464844 187.625 153.328125 C 187.539062 153.34375 187.4375 153.34375 187.316406 153.335938 C 186.542969 152.976562 184.148438 151.734375 181.40625 150.269531 C 155.65625 136.484375 159.492188 157.046875 164.753906 152.328125 C 166.554688 150.71875 164.542969 149.210938 164.285156 149.207031 C 164.214844 149.148438 164.152344 149.097656 164.101562 149.046875 C 164.035156 148.898438 164.007812 148.765625 164.023438 148.644531 C 165.71875 147.257812 168.917969 147.613281 171.023438 148.238281 C 174.199219 149.277344 184.96875 154.382812 185.789062 155.324219 C 186.136719 155.75 185.808594 156.578125 184.3125 159.132812 C 182.390625 162.414062 176.78125 173.289062 178.15625 177.882812 C 178.75 179.863281 180.117188 181.710938 181.359375 182.214844 C 182.789062 182.792969 183.546875 182.6875 184.734375 181.753906 C 187.074219 179.914062 185.027344 177.695312 183.9375 177.601562 C 183.21875 177.335938 181.84375 178.785156 181.292969 179.300781 C 180.890625 178.636719 180.476562 177.519531 180.378906 176.363281 C 180.042969 171.546875 186.511719 160 188.421875 156.882812 C 190.109375 157.398438 200.855469 164.984375 208.058594 165.011719 C 219.269531 165.0625 214.734375 154.277344 211.058594 158.125 Z M 211.0625 158.125 " fill-opacity="1" fill-rule="nonzero"/><path fill="#8f3013" d="M 166.902344 166.710938 C 167.527344 166.324219 162.464844 164.867188 160.464844 164.859375 C 157.5 164.847656 155.410156 162.371094 153.476562 163.25 C 152.640625 163.628906 152.53125 163.84375 152.933594 164.324219 C 153.554688 165.070312 156.457031 166.582031 158.140625 167.03125 C 159.582031 167.414062 166.148438 167.175781 166.902344 166.710938 Z M 166.902344 166.710938 " fill-opacity="1" fill-rule="nonzero"/><path fill="#8f3013" d="M 148.4375 158.039062 C 148.476562 158.117188 148.535156 158.199219 148.609375 158.289062 C 148.957031 158.710938 149.164062 158.929688 149.601562 158.828125 C 150.144531 159.050781 150.402344 158.671875 150.792969 158.234375 C 152.679688 157.058594 153.34375 156.4375 155.496094 155.207031 C 153.636719 154.253906 152.246094 153.09375 150.679688 152.210938 C 149.84375 151.578125 149.570312 151.496094 149.175781 151.8125 C 149.0625 151.855469 148.953125 151.917969 148.839844 152.003906 C 148.171875 152.492188 148.148438 152.664062 148.664062 153.320312 C 150.089844 155.132812 151.003906 154.566406 149.296875 156.351562 C 148.246094 157.453125 148.058594 157.679688 148.4375 158.039062 Z M 148.4375 158.039062 " fill-opacity="1" fill-rule="nonzero"/><path fill="#8f3013" d="M 148.144531 143.46875 C 147.964844 143.222656 147.492188 143.300781 147.121094 143.300781 C 145.351562 143.28125 144.8125 143.964844 144.820312 146.226562 C 144.824219 147.789062 144.984375 148.652344 145.328125 148.84375 C 145.527344 149.214844 145.710938 149.058594 146.367188 148.230469 C 146.914062 147.5625 147.351562 146.730469 147.351562 146.402344 C 147.351562 144.015625 150.097656 149.820312 151.949219 151.851562 C 156.15625 156.46875 151.292969 146.1875 150.835938 145.652344 C 149.777344 144.421875 148.976562 143.753906 148.144531 143.46875 Z M 148.144531 143.46875 " fill-opacity="1" fill-rule="nonzero"/><path fill="#8f3013" d="M 151.875 162.472656 C 154.347656 157.507812 154.734375 153.933594 148.988281 162.851562 C 148.71875 163.273438 147.566406 164.949219 147.167969 164.796875 C 146.695312 164.242188 147.898438 163.265625 146.679688 162.449219 C 146.308594 162.078125 146.300781 162.222656 144.8125 161.453125 C 144.8125 165.308594 144.703125 166.003906 145.738281 166.726562 C 148.308594 168.53125 150.566406 165.351562 151.875 162.472656 Z M 151.875 162.472656 " fill-opacity="1" fill-rule="nonzero"/><path fill="#8f3013" d="M 143.105469 150.476562 C 143.664062 150.46875 143.992188 150.433594 144.167969 150.3125 C 144.574219 150.191406 144.589844 149.949219 144.351562 149.3125 C 143.476562 146.980469 136.5 148.796875 133.914062 153.730469 L 133.292969 154.707031 C 138.101562 154.707031 137.273438 151.324219 143.105469 150.476562 Z M 143.105469 150.476562 " fill-opacity="1" fill-rule="nonzero"/><path fill="#8f3013" d="M 176.9375 187.652344 C 177.492188 188.738281 177.847656 189.269531 178.171875 189.316406 L 178.324219 189.570312 L 178.542969 189.164062 C 178.691406 189.015625 178.851562 188.773438 179.027344 188.4375 C 179.441406 187.667969 179.421875 187.1875 178.929688 186.007812 C 178.230469 184.320312 177.738281 180.46875 177.363281 178.582031 C 176.789062 175.449219 176.535156 176.46875 176.121094 177.976562 C 175.402344 180.59375 175.8125 185.441406 176.9375 187.652344 Z M 176.9375 187.652344 " fill-opacity="1" fill-rule="nonzero"/><path fill="#8f3013" d="M 196.824219 254.960938 C 196.957031 254.953125 197.632812 254.046875 198.332031 252.953125 C 199.234375 251.53125 199.496094 250.957031 199.570312 249.089844 C 200.097656 245.886719 199.269531 242.222656 198.988281 241.9375 L 198.816406 241.226562 L 198.734375 241.699219 L 198.71875 241.648438 C 197.171875 252.273438 195.34375 251.527344 196.167969 253.8125 C 196.402344 254.453125 196.695312 254.96875 196.824219 254.960938 Z M 196.824219 254.960938 " fill-opacity="1" fill-rule="nonzero"/><path fill="#8f3013" d="M 189.183594 100.980469 C 187.96875 100.980469 188.539062 103.390625 189.804688 104.390625 C 191.246094 105.519531 192.621094 108.523438 192.621094 110.53125 C 192.621094 111.988281 192.59375 112.117188 193.660156 111.722656 C 193.804688 111.738281 193.960938 111.679688 194.121094 111.546875 C 195.375 111.042969 195.445312 110.015625 194.453125 107.097656 C 193.53125 104.394531 190.007812 100.980469 189.183594 100.980469 Z M 189.183594 100.980469 " fill-opacity="1" fill-rule="nonzero"/><path fill="#8f3013" d="M 186.925781 100.980469 L 186.902344 100.765625 L 186.625 101.042969 C 185.355469 101.640625 181.535156 104.753906 180.929688 109.148438 C 180.683594 110.953125 180.746094 111.148438 181.667969 111.496094 C 183.011719 112.003906 183.3125 111.761719 183.316406 110.15625 C 183.320312 108.828125 184.960938 105.671875 185.738281 104.855469 C 186.078125 104.5 186.351562 104.183594 186.566406 103.894531 C 187.496094 103.1875 187.652344 100.992188 186.925781 100.980469 Z M 186.925781 100.980469 " fill-opacity="1" fill-rule="nonzero"/><path fill="#8f3013" d="M 176.59375 134.125 L 176.671875 134.613281 C 178.246094 129.414062 178.382812 125.601562 179.554688 123.304688 C 180.742188 120.972656 179.753906 121.085938 179.433594 119.808594 C 179.335938 119.921875 178.878906 120.457031 178.425781 120.882812 C 175.503906 123.628906 175.640625 132.007812 176.59375 134.125 Z M 176.59375 134.125 " fill-opacity="1" fill-rule="nonzero"/><path fill="#8f3013" d="M 175.53125 146.121094 C 175.597656 146.171875 175.757812 146.292969 175.757812 146.292969 C 177.953125 147.683594 178.691406 143.191406 185.339844 141.964844 C 192.609375 141.070312 192.105469 143.3125 192.925781 141.132812 C 193.371094 139.964844 193.332031 139.914062 191.839844 139.605469 C 186.015625 138.40625 180.703125 140.113281 176.75 143.757812 C 174.941406 145.425781 174.84375 145.617188 175.53125 146.121094 Z M 175.53125 146.121094 " fill-opacity="1" fill-rule="nonzero"/><path fill="#8f3013" d="M 187.835938 122.496094 C 187.910156 122.566406 187.941406 122.570312 188.03125 122.476562 C 188.273438 122.359375 188.542969 121.9375 188.847656 121.203125 C 190.089844 118.203125 192.1875 117.773438 191.367188 116.234375 C 190.636719 114.871094 190.535156 115.171875 187.964844 117.636719 C 186.035156 115.785156 185.074219 114.390625 184.464844 116.496094 C 183.730469 117.601562 184.824219 117.328125 186.910156 120.867188 C 186.914062 120.875 186.917969 120.878906 186.917969 120.882812 C 187.550781 122.28125 187.628906 122.441406 187.835938 122.496094 Z M 187.835938 122.496094 " fill-opacity="1" fill-rule="nonzero"/><path fill="#8f3013" d="M 191.382812 154.285156 C 192.164062 154.285156 199.390625 150.375 199.390625 149.953125 C 199.390625 149.746094 199.1875 149.195312 198.9375 148.730469 C 198.5 147.910156 198.425781 147.925781 196.082031 149.234375 C 193.167969 150.859375 192.628906 151.316406 191.644531 152.988281 C 191.140625 153.839844 191.050781 154.285156 191.382812 154.285156 Z M 191.382812 154.285156 " fill-opacity="1" fill-rule="nonzero"/><path fill="#8f3013" d="M 181.726562 130.984375 C 181.765625 131.027344 181.8125 131.074219 181.859375 131.128906 C 182.875 133.292969 183.589844 133.015625 184.292969 132.644531 C 186.324219 131.574219 186.210938 129.882812 184.835938 128.777344 C 182.757812 126.746094 176.628906 128.496094 178.253906 137.460938 C 178.515625 138.910156 178.816406 140.238281 178.921875 140.40625 C 179.085938 140.671875 180.242188 140.300781 180.734375 139.90625 C 181.167969 139.734375 181.117188 139.691406 181.058594 139.378906 C 181.113281 138.980469 179.886719 135.1875 180.753906 132.554688 C 181.03125 131.714844 181.445312 131.117188 181.726562 130.984375 Z M 181.726562 130.984375 " fill-opacity="1" fill-rule="nonzero"/><path fill="#8f3013" d="M 187.230469 152.152344 C 187.644531 152.175781 183.261719 143.90625 182.949219 143.796875 C 182.910156 143.746094 182.878906 143.71875 182.863281 143.714844 C 182.660156 143.710938 182.042969 144.132812 181.875 144.257812 C 180.984375 144.90625 181.011719 144.980469 182.417969 147.722656 C 183.472656 149.785156 184.246094 150.726562 185.378906 151.324219 C 185.640625 151.464844 186.957031 152.136719 187.230469 152.152344 Z M 187.230469 152.152344 " fill-opacity="1" fill-rule="nonzero"/><path fill="#8f3013" d="M 144.21875 138.269531 C 145.171875 138.871094 146.707031 139.921875 148.542969 140.574219 L 148.542969 140.578125 C 150.429688 141.25 159.039062 141.152344 172.925781 141.167969 L 173.351562 141.167969 C 171.925781 139.742188 172.453125 140.269531 171.023438 138.84375 C 154.851562 138.730469 151.453125 138.800781 148.808594 137.96875 C 146.25 137.164062 146.195312 137.367188 144.21875 138.269531 Z M 144.21875 138.269531 " fill-opacity="1" fill-rule="nonzero"/><path fill="#8f3013" d="M 231.617188 171.78125 C 231.585938 171.765625 226.285156 169.316406 226.253906 169.300781 C 220.019531 169.238281 203.058594 168.917969 203.207031 169.414062 C 203.015625 169.542969 204.355469 171.03125 204.863281 171.230469 C 206.949219 172.132812 224.167969 171.15625 227.308594 172.476562 C 229.886719 173.558594 229.304688 173.558594 231.617188 171.78125 Z M 231.617188 171.78125 " fill-opacity="1" fill-rule="nonzero"/><path fill="#8f3013" d="M 229.148438 143.296875 C 224.742188 142.863281 221.816406 152.921875 222.296875 152.953125 L 222.28125 153.003906 L 222.355469 152.949219 C 222.730469 152.875 223.867188 152.085938 224.410156 151.46875 C 224.785156 151.039062 225.425781 150.023438 225.828125 149.207031 C 226.566406 147.722656 228.09375 145.824219 228.550781 145.824219 C 228.683594 145.824219 228.824219 146.324219 228.855469 146.9375 C 228.921875 148.050781 229.707031 148.882812 230.464844 148.644531 C 231.695312 148.253906 231.796875 143.023438 229.148438 143.296875 Z M 229.148438 143.296875 " fill-opacity="1" fill-rule="nonzero"/><g clip-path="url(#9b5453f211)"><path fill="#8f3013" d="M 167.855469 112.375 C 168.039062 112.675781 168.257812 112.820312 168.558594 112.785156 C 168.621094 112.84375 168.636719 112.835938 168.742188 112.753906 C 169.019531 112.894531 169.457031 112.789062 169.246094 112.574219 C 169.234375 112.566406 169.226562 112.550781 169.222656 112.539062 C 171.230469 111.003906 171.449219 110.117188 173.234375 109.425781 C 174.328125 109.140625 176.898438 109.28125 177.691406 109.570312 C 178.03125 109.691406 178.253906 109.742188 178.421875 109.679688 L 178.605469 109.730469 C 180.671875 100.726562 186.546875 97.984375 188.125 98.101562 C 189.265625 98.253906 192.519531 100.136719 194.355469 102.542969 C 195.839844 104.601562 196.824219 108.160156 196.832031 108.507812 C 196.839844 108.914062 196.863281 109.148438 197.078125 109.261719 C 197.328125 110.195312 198.816406 108.933594 201.441406 109.144531 C 205.242188 109.617188 206.300781 113.476562 207.484375 112.507812 C 208.414062 111.964844 208.308594 111.433594 207.925781 110.863281 C 207.449219 109.546875 205.410156 107.246094 200.902344 106.628906 C 199.792969 106.476562 198.898438 106.355469 198.492188 105.261719 C 196.992188 101.195312 192.242188 95.785156 187.984375 95.785156 C 184.730469 95.785156 180.175781 99.570312 177.933594 104.140625 C 176.378906 107.3125 176.390625 105.898438 173.15625 106.984375 C 168.914062 108.09375 167.304688 111.488281 167.855469 112.375 Z M 167.855469 112.375 " fill-opacity="1" fill-rule="nonzero"/></g><path fill="#8f3013" d="M 196.636719 143.296875 C 196.371094 144.128906 197.128906 145.03125 197.726562 145.710938 C 198.496094 146.585938 200.660156 149.703125 201.105469 152.316406 C 201.527344 155.398438 200.960938 159.605469 201.945312 160.226562 C 202.957031 160.867188 203.140625 160.714844 203.652344 158.832031 C 205.859375 150.703125 197.769531 139.722656 196.636719 143.296875 Z M 196.636719 143.296875 " fill-opacity="1" fill-rule="nonzero"/><path fill="#8f3013" d="M 218.886719 159.496094 C 218.847656 159.699219 218.910156 159.773438 219.097656 159.746094 C 219.457031 160.179688 219.890625 160.609375 220.414062 161.070312 C 224.851562 164.964844 220.652344 158.222656 219.925781 156.300781 C 219.664062 155.277344 219.644531 154.832031 221.175781 151.5625 C 221.992188 149.824219 222.65625 148.289062 222.65625 148.15625 C 222.65625 147.105469 213.664062 153.042969 218.886719 159.496094 Z M 218.886719 159.496094 " fill-opacity="1" fill-rule="nonzero"/><path fill="#8f3013" d="M 140.578125 161.925781 C 144.585938 163.144531 144.644531 160.875 144.351562 160.558594 C 144.289062 160.328125 144.089844 160.226562 143.734375 160.210938 C 141.761719 159.460938 139.507812 159.5 137.398438 157.175781 C 137.023438 156.761719 136.636719 156.34375 136.320312 156.078125 C 136.011719 155.355469 133.722656 155.730469 133.550781 156.113281 L 133.199219 156.214844 C 135.625 158.84375 137.179688 160.894531 140.578125 161.925781 Z M 140.578125 161.925781 " fill-opacity="1" fill-rule="nonzero"/><path fill="#8f3013" d="M 190.566406 162.324219 C 192.789062 166.519531 193.027344 166.761719 194.375 166.207031 C 195.484375 165.746094 192.882812 160.777344 190.625 159.226562 C 190.472656 159.105469 188.628906 157.882812 188.648438 158.171875 L 188.242188 157.949219 C 191.324219 163.679688 189.105469 159.566406 190.566406 162.324219 Z M 190.566406 162.324219 " fill-opacity="1" fill-rule="nonzero"/><path fill="#8f3013" d="M 173.792969 116.417969 C 171.722656 112.484375 171.515625 111.878906 171.058594 112.234375 C 170.984375 112.253906 170.917969 112.324219 170.84375 112.433594 C 169.65625 113.363281 170.199219 114.523438 170.664062 115.867188 C 172.441406 121.015625 170.382812 137.164062 172.390625 139.039062 L 172.394531 139.039062 C 172.617188 139.246094 173.617188 140.078125 173.71875 139.863281 C 174.1875 140.175781 173.828125 119.582031 173.792969 116.417969 Z M 173.792969 116.417969 " fill-opacity="1" fill-rule="nonzero"/><path fill="#8f3013" d="M 146.214844 160.523438 C 146.625 160.957031 145.824219 160.089844 147.957031 162.402344 C 149.335938 160.699219 149.667969 160.582031 148.917969 159.910156 C 148.4375 159.46875 146.382812 157.925781 146.144531 155.535156 C 146.523438 150.394531 150.121094 151.222656 149.054688 149.230469 C 148.882812 148.90625 148.726562 148.675781 148.554688 148.550781 C 148.6875 148.351562 148.496094 148.296875 148.1875 148.4375 C 147.585938 148.480469 139.839844 153.785156 146.214844 160.523438 Z M 146.214844 160.523438 " fill-opacity="1" fill-rule="nonzero"/><path fill="#8f3013" d="M 153.542969 161.582031 C 153.226562 162.546875 153.574219 162.515625 155.152344 161.433594 C 159.273438 158.597656 159.675781 152.894531 155.980469 149.652344 C 153.363281 147.351562 152.984375 148.179688 154.964844 151.890625 C 156.539062 154.835938 156.542969 155.472656 155.011719 158.457031 C 154.679688 159.097656 153.792969 160.621094 153.601562 161.359375 C 153.589844 161.410156 153.558594 161.542969 153.542969 161.582031 Z M 153.542969 161.582031 " fill-opacity="1" fill-rule="nonzero"/><path fill="#8f3013" d="M 183.011719 120.25 L 183.011719 120.246094 C 184.328125 120.660156 185.070312 120.851562 185.410156 120.8125 C 185.738281 120.890625 185.855469 120.835938 185.636719 120.507812 C 185.253906 118.617188 178.871094 116.199219 178.5 114.742188 C 178.566406 114.582031 178.886719 114.515625 179.4375 114.515625 C 181.09375 114.515625 181.875 112.785156 181.519531 112.621094 C 181.324219 111.667969 177.835938 111.933594 176.9375 112.414062 C 175.746094 113.054688 174.546875 117.601562 183.011719 120.25 Z M 183.011719 120.25 " fill-opacity="1" fill-rule="nonzero"/><path fill="#8f3013" d="M 203.019531 146.441406 C 202.628906 146.742188 202.972656 147.078125 203.015625 147.222656 C 203.171875 147.734375 203.351562 148.207031 203.410156 148.277344 C 203.472656 148.347656 204.769531 148.183594 206.300781 147.917969 C 207.609375 147.691406 208.40625 147.59375 209.898438 147.75 C 210.390625 147.847656 211.585938 148.222656 211.902344 148.535156 C 211.886719 148.75 211.71875 149.074219 211.453125 149.390625 C 211.167969 149.582031 210.355469 149.996094 210.425781 150.917969 L 210.347656 151.011719 L 210.4375 151.109375 C 210.484375 151.523438 210.804688 151.925781 211.089844 152.242188 C 213.054688 154.414062 215.972656 151.714844 214.824219 148.597656 C 213.351562 144.027344 203.789062 145.378906 203.019531 146.441406 Z M 203.019531 146.441406 " fill-opacity="1" fill-rule="nonzero"/><path fill="#8f3013" d="M 173.0625 164.230469 C 173.304688 164.121094 172.921875 163.199219 172.816406 162.964844 C 172.492188 162.253906 172.300781 162.046875 171.789062 162.152344 C 171.328125 162.207031 167.828125 163.433594 164.480469 162.160156 C 164.210938 161.960938 164.058594 161.828125 164.035156 161.6875 C 164.542969 160.867188 166.53125 159.886719 164.84375 158.019531 C 163.984375 157.074219 163.066406 157.039062 161.828125 157.90625 C 161.109375 158.410156 160.890625 158.984375 160.890625 160.367188 C 160.890625 162.066406 161.625 163.386719 163.566406 164.273438 C 163.679688 164.324219 164.171875 164.53125 164.550781 164.667969 C 166.277344 165.28125 166.675781 165.605469 172.09375 164.480469 C 172.796875 164.394531 173.011719 164.347656 173.0625 164.230469 Z M 173.0625 164.230469 " fill-opacity="1" fill-rule="nonzero"/><g clip-path="url(#d4a96b04f8)"><path fill="#8f3013" d="M 244.578125 149.410156 C 239.855469 144.109375 236.785156 145.328125 236.628906 143.050781 C 236.558594 141.691406 236.699219 139.410156 234.191406 136.777344 C 233.769531 136.253906 233.328125 135.828125 232.898438 135.542969 C 231.828125 134.644531 231.328125 134.703125 230.6875 135.476562 C 230.484375 135.71875 230.40625 135.925781 230.511719 136.203125 C 230.457031 136.429688 230.554688 136.617188 230.78125 136.679688 C 231.683594 137.90625 233.964844 138.835938 234.046875 142.59375 C 234.023438 145.601562 232.984375 146.246094 234.804688 146.246094 C 237.996094 146.246094 244.703125 151.277344 245.070312 155.066406 C 245.046875 158.617188 239.195312 163.273438 234.800781 164.210938 C 234.402344 164.296875 234.140625 164.363281 233.976562 164.492188 L 233.824219 164.519531 L 233.835938 164.566406 L 233.753906 164.585938 L 233.777344 164.832031 C 233.511719 166.191406 235.351562 169.128906 231.863281 172.480469 C 230.671875 173.625 230.480469 173.660156 230.511719 174.054688 C 230.40625 174.332031 230.480469 174.539062 230.6875 174.785156 C 230.84375 174.976562 230.925781 175.097656 230.984375 175.15625 C 231.269531 175.441406 231.332031 175.417969 231.570312 175.386719 C 232.789062 175.578125 236.035156 172.867188 236.566406 168.574219 C 237.027344 164.847656 238.175781 166.65625 243.105469 162.617188 C 245.019531 161.050781 247.625 156.71875 247.625 155.230469 C 247.625 152.917969 244.839844 149.574219 244.578125 149.410156 Z M 244.578125 149.410156 " fill-opacity="1" fill-rule="nonzero"/></g><path fill="#8f3013" d="M 207.507812 261.785156 C 207.007812 261.542969 206.550781 261.804688 205.652344 262.828125 C 204.363281 264.296875 202.007812 265.570312 200.125 265.273438 C 198.484375 264.992188 197.09375 263.523438 196.75 266.554688 C 196.453125 269.210938 193.433594 273.78125 189.582031 275.742188 C 187.71875 276.550781 185.097656 275.027344 183.492188 273.800781 C 180.90625 271.542969 179.082031 267.324219 179.082031 266.144531 C 179.082031 265.488281 178.949219 265.101562 178.578125 264.941406 C 178.433594 264.640625 176.828125 265.050781 176.582031 265.117188 C 174.21875 265.753906 171.894531 264.585938 170.234375 262.777344 C 169.414062 261.886719 168.949219 261.285156 168.375 261.683594 C 167.019531 262.617188 167.988281 263.78125 168.941406 264.867188 C 170.066406 266.148438 172.390625 267.5 175.785156 267.671875 C 176.917969 267.914062 177.265625 268.664062 177.742188 269.722656 C 179.378906 273.339844 182.1875 276.195312 184.664062 277.53125 C 187.371094 279.105469 189.0625 279.199219 192.511719 276.671875 C 199.707031 271.492188 197.410156 267.667969 200.429688 267.667969 C 205.023438 267.667969 208.746094 263.738281 208.160156 262.386719 C 208.109375 261.988281 207.878906 261.863281 207.507812 261.785156 Z M 207.507812 261.785156 " fill-opacity="1" fill-rule="nonzero"/><path fill="#8f3013" d="M 204.925781 139.25 C 204.417969 139.441406 203.828125 139.9375 203.589844 140.382812 L 203.585938 140.382812 C 203.511719 140.519531 203.453125 140.636719 203.460938 140.734375 L 202.984375 141.214844 L 202.988281 141.214844 L 202.984375 141.21875 C 202.984375 141.21875 226.675781 140.960938 226.675781 140.960938 L 227.324219 140.617188 C 228.472656 140.359375 230.242188 139.289062 230.667969 138.851562 C 230.820312 138.773438 230.949219 138.675781 230.890625 138.511719 C 231.003906 138.210938 230.492188 137.894531 230.207031 137.75 C 228.625 136.683594 228.914062 138.46875 222.398438 138.746094 C 219.742188 138.835938 216.652344 138.847656 205.234375 138.9375 Z M 204.925781 139.25 " fill-opacity="1" fill-rule="nonzero"/><path fill="#8f3013" d="M 141.917969 167.21875 C 141.984375 166.398438 142.113281 165.6875 142.105469 165.207031 C 142.15625 165.023438 142.214844 164.792969 142.101562 164.640625 L 142.113281 164.5 L 141.746094 164.433594 C 141.378906 164.183594 140.679688 164.054688 139.421875 163.800781 C 138.03125 163.523438 128.835938 158.578125 131.628906 153.171875 C 132.535156 151.417969 135.195312 148.222656 139.988281 146.398438 C 141.5 146.003906 142.113281 146.644531 142.097656 145.4375 C 142.144531 145.320312 142.128906 145.203125 142.082031 145.089844 C 141.996094 143.804688 141.675781 141.960938 142.183594 140.269531 C 143.09375 137.914062 146.238281 136.667969 145.25 135.476562 C 144.503906 134.578125 144.210938 134.636719 142.507812 136.128906 C 141.636719 136.894531 140.859375 137.722656 140.347656 138.777344 C 137.789062 143.316406 141.445312 142.816406 136.535156 145.355469 C 130.359375 148.546875 127.359375 154.117188 128.78125 157.0625 C 130.011719 159.902344 132.539062 162.757812 134.613281 164.003906 C 137.898438 166.308594 139.3125 165.308594 139.3125 167.914062 C 139.3125 172.066406 143.222656 175.488281 144.34375 175.382812 C 144.527344 175.429688 144.652344 175.40625 144.707031 175.308594 C 144.773438 175.269531 145.066406 175.007812 145.246094 174.792969 C 146.550781 173.214844 141.628906 172.828125 141.917969 167.21875 Z M 141.917969 167.21875 " fill-opacity="1" fill-rule="nonzero"/><path fill="#8f3013" d="M 171.425781 171.0625 C 172.261719 170.191406 171.867188 170.605469 173.316406 169.089844 C 154.234375 169.089844 149.066406 168.867188 145.730469 171.050781 C 144.808594 171.652344 144.789062 171.746094 145.433594 172.457031 C 145.960938 173.039062 146.140625 173.203125 146.703125 172.972656 C 151.683594 172.152344 144.328125 171.628906 170.890625 171.628906 C 171.042969 171.457031 171.40625 171.105469 171.425781 171.0625 Z M 171.425781 171.0625 " fill-opacity="1" fill-rule="nonzero"/><path fill="#8f3013" d="M 202.445312 170.269531 L 202.441406 170.398438 C 201.609375 170.003906 202.128906 253.191406 202.136719 257.722656 L 203.140625 259.945312 C 204.171875 262.21875 204.339844 262.378906 205.140625 261.839844 C 205.976562 261.28125 206.054688 260.285156 205.359375 258.992188 C 204.597656 257.574219 204.640625 251.222656 204.253906 172.074219 C 204.253906 172.074219 202.445312 170.269531 202.445312 170.269531 Z M 202.445312 170.269531 " fill-opacity="1" fill-rule="nonzero"/><path fill="#8f3013" d="M 173.871094 170.300781 L 173.730469 170.441406 C 173.671875 169.945312 171.789062 172.230469 171.464844 172.605469 C 171.464844 255.492188 171.609375 255.851562 170.628906 258.433594 C 170.136719 259.734375 169.738281 260.691406 170.304688 261.257812 C 170.304688 261.257812 170.414062 261.355469 170.550781 261.492188 C 175.109375 266.050781 174.011719 238.394531 173.871094 170.300781 Z M 173.871094 170.300781 " fill-opacity="1" fill-rule="nonzero"/><path fill="#8f3013" d="M 199.304688 261.660156 C 199.441406 261.519531 200.265625 260.324219 199.53125 258.742188 C 198.425781 255.078125 190.34375 253.300781 190.230469 253.414062 C 189.738281 253.90625 190.859375 255.023438 193.667969 256.828125 C 200.976562 261.535156 195.476562 259.21875 195.09375 260.519531 C 194.621094 260.871094 194.3125 261.382812 194.3125 261.925781 C 194.3125 262.300781 198.640625 262.324219 199.304688 261.660156 Z M 199.304688 261.660156 " fill-opacity="1" fill-rule="nonzero"/><path fill="#8f3013" d="M 194.179688 202.261719 C 194.121094 201.867188 191.269531 202.246094 191.074219 204.070312 C 190.828125 204.886719 191.792969 205.75 192.027344 205.925781 C 193.609375 207.5 193.351562 206.035156 194.695312 205.605469 C 195.222656 205.511719 195.234375 206.179688 194.789062 208.886719 C 194.257812 212.113281 192.859375 215.21875 190.152344 219.1875 C 188.503906 221.605469 188.472656 221.71875 189.160156 222.664062 C 189.621094 223.300781 189.324219 222.78125 189.828125 223.722656 L 189.921875 223.597656 C 189.964844 223.632812 190.027344 223.683594 190.070312 223.652344 C 190.464844 223.746094 193.984375 217.378906 194.210938 216.960938 C 197.007812 212.652344 200.066406 203.273438 194.179688 202.261719 Z M 194.179688 202.261719 " fill-opacity="1" fill-rule="nonzero"/><path fill="#8f3013" d="M 193.699219 258.023438 C 193.160156 257.871094 192.640625 257.953125 192.394531 258.464844 C 191.722656 258.898438 190.679688 260.167969 189.070312 260.714844 C 186.167969 261.535156 184.574219 259.148438 183.554688 258.367188 C 183.542969 258.347656 183.53125 258.332031 183.515625 258.3125 C 183.324219 257.792969 183.230469 257.601562 182.464844 257.917969 C 181.753906 257.953125 181.160156 258.652344 181.203125 258.914062 C 181.070312 259.792969 183.101562 261.660156 185.214844 262.632812 C 186.234375 263.101562 187.128906 263.351562 188.003906 263.386719 C 191.503906 263.800781 196.632812 258.046875 193.699219 258.023438 Z M 193.699219 258.023438 " fill-opacity="1" fill-rule="nonzero"/><path fill="#8f3013" d="M 194.863281 252.882812 C 194.699219 252.261719 193.925781 251.359375 192.972656 250.546875 C 189.375 246.796875 183.664062 248.40625 181.132812 253.003906 C 180.753906 253.691406 180.824219 253.75 181.6875 253.476562 C 185.730469 252.210938 186.273438 249.679688 190.828125 251.820312 C 195.808594 254.578125 195.023438 253.484375 194.863281 252.882812 Z M 194.863281 252.882812 " fill-opacity="1" fill-rule="nonzero"/><path fill="#8f3013" d="M 185.898438 125.632812 C 190.011719 126.410156 193.167969 124.378906 194.351562 122.050781 L 195.214844 120.363281 C 190.519531 121.785156 189.1875 124.984375 184.925781 122.292969 C 183.101562 121.140625 180.671875 120.226562 180.777344 120.863281 C 180.683594 121.363281 183.902344 124.78125 185.1875 125.363281 C 185.339844 125.433594 185.785156 125.609375 185.898438 125.632812 Z M 185.898438 125.632812 " fill-opacity="1" fill-rule="nonzero"/><path fill="#8f3013" d="M 196.6875 120.164062 C 196.667969 120.160156 196.648438 120.15625 196.632812 120.15625 C 196.433594 120.089844 196.359375 120.199219 195.988281 120.894531 C 195.09375 122.5625 196.925781 123.085938 197.457031 126.785156 C 197.609375 127.832031 198.035156 130 198.40625 131.597656 C 199.15625 134.832031 199.550781 134.671875 199.964844 130.957031 C 200.613281 125.148438 197.609375 119.984375 196.6875 120.164062 Z M 196.6875 120.164062 " fill-opacity="1" fill-rule="nonzero"/><path fill="#8f3013" d="M 183.675781 243.328125 C 183.484375 243.15625 183.324219 243.105469 183.101562 243.160156 C 182.886719 243.148438 182.671875 243.214844 182.460938 243.363281 C 182.1875 243.453125 181.136719 244.050781 180.886719 243.800781 C 180.699219 243.613281 181.019531 240.855469 181.371094 239.3125 C 182.523438 235.238281 186.847656 228.363281 186.386719 229.023438 C 187.132812 227.953125 187.140625 227.667969 186.660156 226.769531 C 186.136719 225.789062 185.425781 225.429688 185.425781 226.148438 C 185.425781 227.070312 174.59375 240.847656 179.742188 246.539062 C 180.167969 247.007812 180.929688 247.273438 181.726562 247.332031 C 184.585938 248.011719 186.339844 244.128906 183.675781 243.324219 Z M 183.675781 243.328125 " fill-opacity="1" fill-rule="nonzero"/><path fill="#8f3013" d="M 176.84375 161.054688 C 177.238281 162.5625 178.894531 161.597656 180.757812 160.605469 C 182.4375 159.707031 183.464844 158.8125 184.09375 157.691406 C 184.59375 156.800781 185.003906 155.96875 185.003906 155.84375 C 185.003906 155.683594 177.808594 159.246094 176.664062 159.976562 C 176.582031 160.03125 176.820312 160.957031 176.84375 161.054688 Z M 176.84375 161.054688 " fill-opacity="1" fill-rule="nonzero"/><path fill="#8f3013" d="M 193.417969 193.453125 C 193.199219 192.726562 190.292969 193.730469 189.617188 193.945312 C 188.105469 194.125 187.605469 194.074219 186.730469 194.039062 C 181.082031 191.519531 174.226562 195.832031 176.617188 206.304688 C 176.820312 207.324219 176.8125 207.152344 177.132812 208.53125 L 177.1875 208.234375 C 177.1875 208.234375 178.492188 201.035156 179.101562 198.945312 C 179.90625 196.609375 183.382812 194.40625 186.550781 196.824219 L 187.964844 197.902344 C 191.21875 195.476562 191.335938 195.757812 192.320312 195.320312 C 192.769531 195.308594 193.539062 194.296875 193.457031 193.945312 C 193.511719 193.734375 193.503906 193.554688 193.417969 193.453125 Z M 193.417969 193.453125 " fill-opacity="1" fill-rule="nonzero"/><path fill="#8f3013" d="M 199.261719 176.160156 L 199.242188 176.070312 L 199.226562 176.140625 C 198.6875 176.070312 198.214844 182.109375 197.511719 184.605469 C 196.773438 187.144531 195.503906 189.261719 192.941406 189.859375 C 190.816406 190.316406 189.609375 189.101562 188.070312 187.660156 L 187.800781 187.84375 C 187.695312 187.859375 187.660156 187.902344 187.605469 187.976562 L 186.433594 188.773438 C 183.535156 190.738281 182.464844 189.75 182.464844 191.355469 C 182.464844 191.355469 182.464844 191.96875 182.464844 191.96875 C 182.464844 192.363281 183.402344 192.378906 183.785156 192.355469 C 186.273438 192.488281 187.035156 190.488281 189.460938 191.644531 C 193.414062 193.53125 197.132812 191.257812 199.058594 187.507812 C 201.332031 183.085938 199.46875 176.351562 199.261719 176.160156 Z M 199.261719 176.160156 " fill-opacity="1" fill-rule="nonzero"/><path fill="#8f3013" d="M 189.976562 272.9375 C 194.332031 270.164062 196.859375 262.582031 193.414062 262.582031 C 192.15625 262.582031 193.042969 263.921875 192.183594 266.3125 C 190.832031 269.773438 188.175781 270.390625 188.578125 272.273438 C 188.605469 272.609375 188.675781 273.011719 188.78125 273.527344 C 188.78125 273.535156 188.792969 273.542969 188.8125 273.542969 L 188.8125 273.652344 C 189.308594 273.261719 189.046875 273.53125 189.976562 272.9375 Z M 189.976562 272.9375 " fill-opacity="1" fill-rule="nonzero"/><path fill="#8f3013" d="M 209.429688 166.527344 C 212.34375 167.9375 217.332031 167.03125 217.625 166.878906 C 220.328125 166.285156 223.15625 164.640625 222.9375 163.808594 C 222.941406 163.664062 222.898438 163.585938 222.796875 163.5 C 222.734375 163.332031 222.554688 163.226562 222.269531 163.1875 C 220.742188 162.386719 218.296875 164.847656 215.492188 164.855469 C 213.117188 164.863281 209.027344 166.402344 208.90625 166.4375 L 208.9375 166.441406 L 208.90625 166.453125 C 209.398438 166.519531 209.296875 166.503906 209.429688 166.527344 Z M 209.429688 166.527344 " fill-opacity="1" fill-rule="nonzero"/><path fill="#8f3013" d="M 204.546875 127.421875 C 204.71875 114.78125 205.109375 116.359375 205.660156 114.582031 C 206.199219 113.367188 205.320312 112.296875 204.722656 112.46875 C 204.355469 112.445312 203.972656 112.863281 203.175781 114.410156 C 202.183594 116.335938 202.1875 116.621094 202.007812 126.058594 C 201.996094 126.710938 201.789062 140.140625 202.40625 139.863281 L 202.421875 139.980469 C 204.550781 137.980469 204.382812 139.484375 204.546875 127.421875 Z M 204.546875 127.421875 " fill-opacity="1" fill-rule="nonzero"/><path fill="#8f3013" d="M 197.695312 217.644531 C 196.890625 216.4375 196.5 215.988281 196.140625 216.171875 C 195.910156 216.179688 195.679688 216.710938 195.554688 216.949219 C 194.816406 218.332031 196.171875 219.175781 197.152344 222.136719 C 198.988281 227.984375 194.375 234.773438 186.84375 234.152344 C 184.570312 233.964844 184.375 234.152344 183.964844 235.050781 C 183.730469 235.351562 183.6875 235.777344 183.785156 235.925781 C 184.019531 236.871094 190.699219 237.828125 195.050781 234.359375 C 198.773438 231.59375 199.820312 228.652344 199.820312 225.140625 C 199.898438 221.265625 198.898438 219.441406 197.695312 217.644531 Z M 197.695312 217.644531 " fill-opacity="1" fill-rule="nonzero"/><path fill="#8f3013" d="M 199.433594 112.820312 C 198.632812 111.664062 195.886719 111.976562 194.425781 112.375 C 194.398438 112.382812 194.429688 112.511719 194.5 112.714844 C 194.253906 113.414062 195.164062 114.515625 196.230469 114.515625 C 200.039062 114.515625 191.402344 118.339844 190.460938 120.097656 C 190.367188 120.273438 190.296875 120.410156 190.257812 120.519531 L 189.871094 120.933594 L 190.402344 120.804688 C 192 120.953125 197.800781 118.289062 198.976562 116.730469 C 200.074219 115.398438 199.96875 113.121094 199.433594 112.820312 Z M 199.433594 112.820312 " fill-opacity="1" fill-rule="nonzero"/><path fill="#8f3013" d="M 197.804688 195.582031 L 197.675781 195.828125 C 197.308594 195.847656 196.929688 197.109375 196.875 197.527344 C 196.539062 198.890625 197.8125 202.304688 198.375 206.652344 L 198.691406 209.070312 C 199.300781 207.089844 199.839844 205.894531 199.699219 202.429688 C 199.871094 198.890625 198.746094 197.332031 197.804688 195.582031 Z M 197.804688 195.582031 " fill-opacity="1" fill-rule="nonzero"/><path fill="#8f3013" d="M 154.183594 145.347656 C 152.515625 146.460938 152.414062 146.621094 153.125 147.035156 C 155.128906 148.199219 155.859375 146.578125 159.515625 145.597656 C 159.632812 145.582031 167.882812 144.339844 166.988281 143.960938 L 167.023438 143.953125 C 166.804688 143.914062 166.957031 143.933594 166.574219 143.835938 L 166.601562 143.828125 C 163.621094 143.433594 159.835938 141.5625 154.179688 145.347656 Z M 154.183594 145.347656 " fill-opacity="1" fill-rule="nonzero"/><path fill="#8f3013" d="M 175.652344 165.265625 C 175.871094 165.542969 176.097656 165.816406 176.332031 166.074219 C 176.878906 166.679688 178.246094 168.179688 178.871094 167.667969 C 179.152344 167.472656 179.699219 166.679688 178.96875 165.527344 C 179.03125 165.40625 179 165.371094 178.890625 165.414062 C 178.726562 165.171875 178.523438 164.910156 178.265625 164.621094 C 173.589844 159.292969 174.910156 156.632812 174.5625 151.585938 C 174.695312 151.074219 174.8125 150.707031 174.335938 150.46875 C 174.128906 150.113281 173.398438 149.957031 173.007812 150.234375 C 172.710938 150.265625 172.71875 150.324219 172.675781 150.675781 C 171.289062 153.546875 171.660156 159.5625 175.074219 164.476562 C 175.179688 164.855469 175.398438 165.1875 175.652344 165.265625 Z M 175.652344 165.265625 " fill-opacity="1" fill-rule="nonzero"/><path fill="#8f3013" d="M 178.921875 192.226562 L 178.925781 192.226562 C 178.699219 193.539062 178.71875 193.566406 179.871094 193.164062 C 180.808594 192.996094 181.34375 191.929688 181.644531 191.019531 C 182.6875 187.859375 185.984375 185.449219 189.414062 186.300781 C 192.78125 187.367188 193.207031 189.585938 194.550781 188.101562 C 195.050781 187.546875 195.472656 187.214844 194.382812 186.289062 C 193.359375 185.261719 191.628906 184.449219 189.835938 184.097656 C 189.699219 184.007812 180.65625 182.105469 178.921875 192.226562 Z M 178.921875 192.226562 " fill-opacity="1" fill-rule="nonzero"/><path fill="#8f3013" d="M 195.792969 192.4375 C 194.429688 193.058594 195.125 193.128906 193.769531 195.664062 C 192.359375 198.292969 190.664062 199.125 187.964844 199.113281 C 182.96875 199.097656 183.1875 195.238281 181.253906 197.636719 C 180.953125 197.8125 180.851562 197.933594 180.96875 198.15625 C 180.953125 198.199219 180.949219 198.234375 180.960938 198.261719 C 180.902344 198.933594 181.730469 199.59375 183.707031 200.621094 C 186.324219 201.984375 189.558594 201.972656 192.058594 200.679688 C 194.773438 199.273438 196.847656 195.703125 196.847656 193.535156 C 196.851562 192.019531 196.859375 191.953125 195.792969 192.4375 Z M 195.792969 192.4375 " fill-opacity="1" fill-rule="nonzero"/><path fill="#8f3013" d="M 181.273438 115.464844 C 181.03125 116.449219 182.402344 116.328125 182.742188 116.582031 C 182.746094 116.585938 182.777344 116.566406 182.832031 116.527344 C 183.125 116.429688 183.332031 116.105469 184.285156 115.152344 C 185.566406 113.871094 186.039062 113.671875 187.800781 113.671875 C 189.550781 113.671875 190.042969 113.875 191.335938 115.136719 C 191.769531 115.558594 192.722656 116.457031 193.328125 116.40625 C 193.65625 116.425781 194.832031 116.253906 194.652344 115.472656 C 194.679688 115.160156 194.445312 114.851562 193.65625 113.816406 C 192.105469 111.785156 190.289062 111.058594 188 111.144531 C 183.292969 111.136719 181.203125 115.089844 181.273438 115.464844 Z M 181.273438 115.464844 " fill-opacity="1" fill-rule="nonzero"/><g transform="matrix(1, 0, 0, 1, 114, 243)"><g clip-path="url(#9da87b0d46)"><g fill="#8f3013" fill-opacity="1"><g transform="translate(7.537491, 6.254432)"><g><path d="M 15.234375 -2.234375 L 16.671875 3.375 C 17.203125 5.40625 17.238281 7.070312 16.78125 8.375 C 16.320312 9.6875 15.320312 10.539062 13.78125 10.9375 C 12.25 11.320312 10.960938 11.0625 9.921875 10.15625 C 8.890625 9.25 8.109375 7.765625 7.578125 5.703125 L 6.703125 2.28125 L 0.96875 3.765625 L 0.40625 1.578125 Z M 8.625 5.484375 C 9.34375 8.253906 10.875 9.335938 13.21875 8.734375 C 15.570312 8.117188 16.390625 6.425781 15.671875 3.65625 L 14.78125 0.203125 L 7.734375 2.03125 Z M 8.625 5.484375 "/></g></g></g><g fill="#8f3013" fill-opacity="1"><g transform="translate(14.948656, 28.67841)"><g><path d="M 10.296875 9 C 9.804688 9.757812 9.4375 10.398438 9.1875 10.921875 C 8.945312 11.453125 8.832031 11.882812 8.84375 12.21875 L 8.703125 12.3125 L 7.328125 10.359375 C 7.410156 9.984375 7.5625 9.59375 7.78125 9.1875 C 8.007812 8.78125 8.320312 8.28125 8.71875 7.6875 C 9.363281 6.738281 9.800781 5.914062 10.03125 5.21875 C 10.269531 4.53125 10.289062 3.890625 10.09375 3.296875 L 9.75 2.828125 L 7.421875 -0.484375 L 2.25 3.171875 L 0.9375 1.328125 L 13.4375 -7.515625 L 17.078125 -2.359375 C 18.296875 -0.640625 18.9375 0.894531 19 2.25 C 19.0625 3.613281 18.472656 4.734375 17.234375 5.609375 C 15.390625 6.910156 13.503906 6.679688 11.578125 4.921875 C 11.660156 5.535156 11.601562 6.160156 11.40625 6.796875 C 11.207031 7.429688 10.835938 8.164062 10.296875 9 Z M 10.625 2.25 C 12.269531 4.582031 14.035156 5.085938 15.921875 3.765625 C 17.785156 2.441406 17.894531 0.613281 16.25 -1.71875 L 13.890625 -5.0625 L 8.265625 -1.09375 Z M 10.625 2.25 "/></g></g></g><g fill="#8f3013" fill-opacity="1"><g transform="translate(30.425457, 47.616944)"><g><path d="M 9.828125 -11.84375 L 20.625 -4.671875 L 20.046875 -3.8125 L 11.125 -9.734375 L 8.0625 -5.125 L 15.9375 0.09375 L 15.375 0.953125 L 7.5 -4.265625 L 3.8125 1.28125 L 12.734375 7.203125 L 12.15625 8.078125 L 1.359375 0.90625 Z M 9.828125 -11.84375 "/></g></g></g><g fill="#8f3013" fill-opacity="1"><g transform="translate(51.632125, 59.749713)"><g><path d="M 8.34375 1.96875 C 6.1875 1.519531 4.578125 0.742188 3.515625 -0.359375 C 2.453125 -1.460938 2.015625 -2.804688 2.203125 -4.390625 L 4.140625 -4 C 3.960938 -2.65625 4.234375 -1.582031 4.953125 -0.78125 C 5.679688 0.0078125 6.875 0.578125 8.53125 0.921875 C 10 1.234375 11.171875 1.210938 12.046875 0.859375 C 12.929688 0.503906 13.476562 -0.148438 13.6875 -1.109375 C 13.800781 -1.679688 13.75 -2.1875 13.53125 -2.625 C 13.3125 -3.070312 12.867188 -3.519531 12.203125 -3.96875 C 11.546875 -4.425781 10.59375 -4.914062 9.34375 -5.4375 C 7.363281 -6.269531 5.914062 -7.113281 5 -7.96875 C 4.082031 -8.820312 3.742188 -9.828125 3.984375 -10.984375 C 4.253906 -12.273438 5.054688 -13.117188 6.390625 -13.515625 C 7.734375 -13.910156 9.378906 -13.90625 11.328125 -13.5 C 13.316406 -13.09375 14.785156 -12.414062 15.734375 -11.46875 C 16.691406 -10.53125 17.128906 -9.421875 17.046875 -8.140625 L 15.125 -8.53125 C 15.132812 -9.613281 14.789062 -10.472656 14.09375 -11.109375 C 13.40625 -11.753906 12.363281 -12.222656 10.96875 -12.515625 C 9.613281 -12.796875 8.535156 -12.785156 7.734375 -12.484375 C 6.929688 -12.191406 6.453125 -11.65625 6.296875 -10.875 C 6.191406 -10.40625 6.238281 -9.972656 6.4375 -9.578125 C 6.644531 -9.191406 7.054688 -8.789062 7.671875 -8.375 C 8.296875 -7.96875 9.207031 -7.507812 10.40625 -7 C 11.894531 -6.363281 13.066406 -5.757812 13.921875 -5.1875 C 14.773438 -4.613281 15.375 -3.984375 15.71875 -3.296875 C 16.0625 -2.617188 16.140625 -1.820312 15.953125 -0.90625 C 15.671875 0.4375 14.847656 1.359375 13.484375 1.859375 C 12.128906 2.359375 10.414062 2.394531 8.34375 1.96875 Z M 8.34375 1.96875 "/></g></g></g><g fill="#8f3013" fill-opacity="1"><g transform="translate(77.311352, 63.153665)"><g><path d="M -1.078125 -15.359375 L 11.703125 -17.625 L 11.890625 -16.59375 L 1.34375 -14.71875 L 2.296875 -9.265625 L 11.609375 -10.921875 L 11.796875 -9.90625 L 2.484375 -8.25 L 3.640625 -1.703125 L 14.1875 -3.578125 L 14.375 -2.546875 L 1.59375 -0.28125 Z M -1.078125 -15.359375 "/></g></g></g><g fill="#8f3013" fill-opacity="1"><g transform="translate(101.037747, 57.302596)"><g><path d="M -6.71875 -13.859375 L -4.765625 -15.078125 L 9.421875 -9.921875 L 3.140625 -20 L 4.765625 -21.015625 L 12.859375 -8.015625 L 11.890625 -7.40625 L -4.03125 -13.1875 L 3.015625 -1.875 L 1.375 -0.859375 Z M -6.71875 -13.859375 "/></g></g></g><g fill="#8f3013" fill-opacity="1"><g transform="translate(122.048499, 41.983626)"><g><path d="M -7.609375 -13.78125 L -11.40625 -8.5625 L -12.25 -9.1875 L -3.3125 -21.46875 L -2.46875 -20.84375 L -6.265625 -15.625 L 5.265625 -7.234375 L 3.921875 -5.390625 Z M -7.609375 -13.78125 "/></g></g></g><g fill="#8f3013" fill-opacity="1"><g transform="translate(135.160921, 21.01316)"><g><path d="M -14.390625 -5.484375 L -11.09375 -18.015625 L -10.078125 -17.75 L -12.8125 -7.40625 L -7.46875 -6 L -5.046875 -15.140625 L -4.046875 -14.875 L -6.46875 -5.734375 L -0.03125 -4.03125 L 2.703125 -14.375 L 3.71875 -14.109375 L 0.421875 -1.578125 Z M -14.390625 -5.484375 "/></g></g></g></g></g><g clip-path="url(#d29c7df79c)"><path fill="#dbc3b8" d="M 132.441406 194.292969 L 242.691406 194.292969 L 242.691406 225.042969 L 132.441406 225.042969 Z M 132.441406 194.292969 " fill-opacity="1" fill-rule="nonzero"/></g><g transform="matrix(1, 0, 0, 1, 142, 191)"><g clip-path="url(#d4f6903909)"><g fill="#8f3013" fill-opacity="1"><g transform="translate(27.3282, 13.286696)"><g><path d="M 5.46875 0.140625 C 4.0625 0.140625 2.953125 -0.128906 2.140625 -0.671875 C 1.335938 -1.222656 0.894531 -2.007812 0.8125 -3.03125 L 2.0625 -3.03125 C 2.125 -2.164062 2.429688 -1.53125 2.984375 -1.125 C 3.535156 -0.726562 4.351562 -0.53125 5.4375 -0.53125 C 6.394531 -0.53125 7.125 -0.695312 7.625 -1.03125 C 8.132812 -1.363281 8.390625 -1.84375 8.390625 -2.46875 C 8.390625 -2.84375 8.289062 -3.15625 8.09375 -3.40625 C 7.90625 -3.65625 7.570312 -3.875 7.09375 -4.0625 C 6.625 -4.257812 5.96875 -4.441406 5.125 -4.609375 C 3.78125 -4.867188 2.765625 -5.207031 2.078125 -5.625 C 1.398438 -6.039062 1.0625 -6.625 1.0625 -7.375 C 1.0625 -8.207031 1.453125 -8.832031 2.234375 -9.25 C 3.015625 -9.675781 4.039062 -9.890625 5.3125 -9.890625 C 6.601562 -9.890625 7.609375 -9.660156 8.328125 -9.203125 C 9.046875 -8.742188 9.460938 -8.109375 9.578125 -7.296875 L 8.328125 -7.296875 C 8.191406 -7.972656 7.863281 -8.460938 7.34375 -8.765625 C 6.832031 -9.078125 6.125 -9.234375 5.21875 -9.234375 C 4.332031 -9.234375 3.660156 -9.085938 3.203125 -8.796875 C 2.742188 -8.503906 2.515625 -8.101562 2.515625 -7.59375 C 2.515625 -7.289062 2.597656 -7.03125 2.765625 -6.8125 C 2.941406 -6.601562 3.25 -6.410156 3.6875 -6.234375 C 4.132812 -6.054688 4.769531 -5.882812 5.59375 -5.71875 C 6.59375 -5.507812 7.394531 -5.285156 8 -5.046875 C 8.613281 -4.804688 9.070312 -4.492188 9.375 -4.109375 C 9.6875 -3.722656 9.84375 -3.234375 9.84375 -2.640625 C 9.84375 -1.765625 9.445312 -1.082031 8.65625 -0.59375 C 7.875 -0.101562 6.8125 0.140625 5.46875 0.140625 Z M 5.46875 0.140625 "/></g></g></g><g fill="#8f3013" fill-opacity="1"><g transform="translate(39.176832, 13.286696)"><g><path d="M 6.03125 0.140625 C 4.9375 0.140625 3.992188 -0.0546875 3.203125 -0.453125 C 2.410156 -0.859375 1.804688 -1.4375 1.390625 -2.1875 C 0.972656 -2.945312 0.765625 -3.859375 0.765625 -4.921875 C 0.765625 -5.960938 0.972656 -6.851562 1.390625 -7.59375 C 1.804688 -8.34375 2.410156 -8.910156 3.203125 -9.296875 C 3.992188 -9.691406 4.9375 -9.890625 6.03125 -9.890625 C 7.125 -9.890625 8.0625 -9.691406 8.84375 -9.296875 C 9.632812 -8.910156 10.238281 -8.34375 10.65625 -7.59375 C 11.082031 -6.851562 11.296875 -5.960938 11.296875 -4.921875 C 11.296875 -3.859375 11.082031 -2.945312 10.65625 -2.1875 C 10.238281 -1.4375 9.632812 -0.859375 8.84375 -0.453125 C 8.0625 -0.0546875 7.125 0.140625 6.03125 0.140625 Z M 6.03125 -0.53125 C 7.238281 -0.53125 8.171875 -0.910156 8.828125 -1.671875 C 9.492188 -2.429688 9.828125 -3.515625 9.828125 -4.921875 C 9.828125 -6.296875 9.5 -7.359375 8.84375 -8.109375 C 8.1875 -8.859375 7.25 -9.234375 6.03125 -9.234375 C 4.8125 -9.234375 3.875 -8.859375 3.21875 -8.109375 C 2.5625 -7.367188 2.234375 -6.304688 2.234375 -4.921875 C 2.234375 -3.515625 2.5625 -2.429688 3.21875 -1.671875 C 3.875 -0.910156 4.8125 -0.53125 6.03125 -0.53125 Z M 6.03125 -0.53125 "/></g></g></g><g fill="#8f3013" fill-opacity="1"><g transform="translate(52.433316, 13.286696)"><g><path d="M 5.609375 0.140625 C 3.992188 0.140625 2.828125 -0.21875 2.109375 -0.9375 C 1.390625 -1.65625 1.03125 -2.695312 1.03125 -4.0625 L 1.03125 -9.75 L 2.484375 -9.75 L 2.484375 -3.734375 C 2.484375 -2.691406 2.726562 -1.894531 3.21875 -1.34375 C 3.707031 -0.800781 4.503906 -0.53125 5.609375 -0.53125 C 6.703125 -0.53125 7.492188 -0.796875 7.984375 -1.328125 C 8.484375 -1.867188 8.734375 -2.671875 8.734375 -3.734375 L 8.734375 -9.75 L 10.1875 -9.75 L 10.1875 -4.0625 C 10.1875 -2.695312 9.828125 -1.65625 9.109375 -0.9375 C 8.398438 -0.21875 7.234375 0.140625 5.609375 0.140625 Z M 5.609375 0.140625 "/></g></g></g><g fill="#8f3013" fill-opacity="1"><g transform="translate(0.827207, 32.446925)"><g><path d="M 5.9375 0.140625 C 4.269531 0.140625 2.988281 -0.296875 2.09375 -1.171875 C 1.207031 -2.046875 0.765625 -3.296875 0.765625 -4.921875 C 0.765625 -6.503906 1.207031 -7.726562 2.09375 -8.59375 C 2.976562 -9.457031 4.25 -9.890625 5.90625 -9.890625 C 7.257812 -9.890625 8.359375 -9.601562 9.203125 -9.03125 C 10.046875 -8.46875 10.546875 -7.679688 10.703125 -6.671875 L 9.453125 -6.671875 C 9.296875 -7.472656 8.910156 -8.097656 8.296875 -8.546875 C 7.679688 -9.003906 6.910156 -9.234375 5.984375 -9.234375 C 4.773438 -9.234375 3.847656 -8.859375 3.203125 -8.109375 C 2.554688 -7.367188 2.234375 -6.304688 2.234375 -4.921875 C 2.234375 -3.503906 2.554688 -2.414062 3.203125 -1.65625 C 3.859375 -0.90625 4.789062 -0.53125 6 -0.53125 C 6.9375 -0.53125 7.707031 -0.753906 8.3125 -1.203125 C 8.914062 -1.648438 9.296875 -2.273438 9.453125 -3.078125 L 10.703125 -3.078125 C 10.546875 -2.066406 10.046875 -1.273438 9.203125 -0.703125 C 8.359375 -0.140625 7.269531 0.140625 5.9375 0.140625 Z M 5.9375 0.140625 "/></g></g></g><g fill="#8f3013" fill-opacity="1"><g transform="translate(13.275228, 32.446925)"><g><path d="M 7.984375 -2.53125 L 2.375 -2.53125 L 1.09375 0 L 0.125 0 L 5.203125 -9.890625 L 5.953125 -9.890625 L 10.734375 0 L 9.171875 0 Z M 7.671875 -3.203125 L 5.265625 -8.328125 L 2.703125 -3.203125 Z M 7.671875 -3.203125 "/></g></g></g><g fill="#8f3013" fill-opacity="1"><g transform="translate(25.332947, 32.446925)"><g><path d="M 4.25 -9.09375 L 0.125 -9.09375 L 0.125 -9.75 L 9.8125 -9.75 L 9.8125 -9.09375 L 5.703125 -9.09375 L 5.703125 0 L 4.25 0 Z M 4.25 -9.09375 "/></g></g></g><g fill="#8f3013" fill-opacity="1"><g transform="translate(36.470684, 32.446925)"><g><path d="M 6.03125 0.140625 C 4.9375 0.140625 3.992188 -0.0546875 3.203125 -0.453125 C 2.410156 -0.859375 1.804688 -1.4375 1.390625 -2.1875 C 0.972656 -2.945312 0.765625 -3.859375 0.765625 -4.921875 C 0.765625 -5.960938 0.972656 -6.851562 1.390625 -7.59375 C 1.804688 -8.34375 2.410156 -8.910156 3.203125 -9.296875 C 3.992188 -9.691406 4.9375 -9.890625 6.03125 -9.890625 C 7.125 -9.890625 8.0625 -9.691406 8.84375 -9.296875 C 9.632812 -8.910156 10.238281 -8.34375 10.65625 -7.59375 C 11.082031 -6.851562 11.296875 -5.960938 11.296875 -4.921875 C 11.296875 -3.859375 11.082031 -2.945312 10.65625 -2.1875 C 10.238281 -1.4375 9.632812 -0.859375 8.84375 -0.453125 C 8.0625 -0.0546875 7.125 0.140625 6.03125 0.140625 Z M 6.03125 -0.53125 C 7.238281 -0.53125 8.171875 -0.910156 8.828125 -1.671875 C 9.492188 -2.429688 9.828125 -3.515625 9.828125 -4.921875 C 9.828125 -6.296875 9.5 -7.359375 8.84375 -8.109375 C 8.1875 -8.859375 7.25 -9.234375 6.03125 -9.234375 C 4.8125 -9.234375 3.875 -8.859375 3.21875 -8.109375 C 2.5625 -7.367188 2.234375 -6.304688 2.234375 -4.921875 C 2.234375 -3.515625 2.5625 -2.429688 3.21875 -1.671875 C 3.875 -0.910156 4.8125 -0.53125 6.03125 -0.53125 Z M 6.03125 -0.53125 "/></g></g></g><g fill="#8f3013" fill-opacity="1"><g transform="translate(49.727167, 32.446925)"><g><path d="M 1.03125 -9.75 L 2.484375 -9.75 L 2.484375 -0.671875 L 8.609375 -0.671875 L 8.609375 0 L 1.03125 0 Z M 1.03125 -9.75 "/></g></g></g><g fill="#8f3013" fill-opacity="1"><g transform="translate(59.791597, 32.446925)"><g><path d="M 1.609375 -9.75 L 3.046875 -9.75 L 3.046875 0 L 1.609375 0 Z M 1.609375 -9.75 "/></g></g></g><g fill="#8f3013" fill-opacity="1"><g transform="translate(65.646425, 32.446925)"><g><path d="M 5.9375 0.140625 C 4.269531 0.140625 2.988281 -0.296875 2.09375 -1.171875 C 1.207031 -2.046875 0.765625 -3.296875 0.765625 -4.921875 C 0.765625 -6.503906 1.207031 -7.726562 2.09375 -8.59375 C 2.976562 -9.457031 4.25 -9.890625 5.90625 -9.890625 C 7.257812 -9.890625 8.359375 -9.601562 9.203125 -9.03125 C 10.046875 -8.46875 10.546875 -7.679688 10.703125 -6.671875 L 9.453125 -6.671875 C 9.296875 -7.472656 8.910156 -8.097656 8.296875 -8.546875 C 7.679688 -9.003906 6.910156 -9.234375 5.984375 -9.234375 C 4.773438 -9.234375 3.847656 -8.859375 3.203125 -8.109375 C 2.554688 -7.367188 2.234375 -6.304688 2.234375 -4.921875 C 2.234375 -3.503906 2.554688 -2.414062 3.203125 -1.65625 C 3.859375 -0.90625 4.789062 -0.53125 6 -0.53125 C 6.9375 -0.53125 7.707031 -0.753906 8.3125 -1.203125 C 8.914062 -1.648438 9.296875 -2.273438 9.453125 -3.078125 L 10.703125 -3.078125 C 10.546875 -2.066406 10.046875 -1.273438 9.203125 -0.703125 C 8.359375 -0.140625 7.269531 0.140625 5.9375 0.140625 Z M 5.9375 0.140625 "/></g></g></g><g fill="#8f3013" fill-opacity="1"><g transform="translate(78.094446, 32.446925)"><g><path d="M 6.03125 0.140625 C 4.9375 0.140625 3.992188 -0.0546875 3.203125 -0.453125 C 2.410156 -0.859375 1.804688 -1.4375 1.390625 -2.1875 C 0.972656 -2.945312 0.765625 -3.859375 0.765625 -4.921875 C 0.765625 -5.960938 0.972656 -6.851562 1.390625 -7.59375 C 1.804688 -8.34375 2.410156 -8.910156 3.203125 -9.296875 C 3.992188 -9.691406 4.9375 -9.890625 6.03125 -9.890625 C 7.125 -9.890625 8.0625 -9.691406 8.84375 -9.296875 C 9.632812 -8.910156 10.238281 -8.34375 10.65625 -7.59375 C 11.082031 -6.851562 11.296875 -5.960938 11.296875 -4.921875 C 11.296875 -3.859375 11.082031 -2.945312 10.65625 -2.1875 C 10.238281 -1.4375 9.632812 -0.859375 8.84375 -0.453125 C 8.0625 -0.0546875 7.125 0.140625 6.03125 0.140625 Z M 6.03125 -0.53125 C 7.238281 -0.53125 8.171875 -0.910156 8.828125 -1.671875 C 9.492188 -2.429688 9.828125 -3.515625 9.828125 -4.921875 C 9.828125 -6.296875 9.5 -7.359375 8.84375 -8.109375 C 8.1875 -8.859375 7.25 -9.234375 6.03125 -9.234375 C 4.8125 -9.234375 3.875 -8.859375 3.21875 -8.109375 C 2.5625 -7.367188 2.234375 -6.304688 2.234375 -4.921875 C 2.234375 -3.515625 2.5625 -2.429688 3.21875 -1.671875 C 3.875 -0.910156 4.8125 -0.53125 6.03125 -0.53125 Z M 6.03125 -0.53125 "/></g></g></g></g></g></svg>