<svg xmlns="http://www.w3.org/2000/svg" xmlns:xlink="http://www.w3.org/1999/xlink" width="500" zoomAndPan="magnify" viewBox="0 0 375 374.999991" height="500" preserveAspectRatio="xMidYMid meet" version="1.0"><defs><g/><clipPath id="15db2f2379"><path d="M 84.234375 84.234375 L 290.765625 84.234375 L 290.765625 290.765625 L 84.234375 290.765625 Z M 84.234375 84.234375 " clip-rule="nonzero"/></clipPath><clipPath id="7ca5ab87bb"><path d="M 187.5 84.234375 C 130.46875 84.234375 84.234375 130.46875 84.234375 187.5 C 84.234375 244.53125 130.46875 290.765625 187.5 290.765625 C 244.53125 290.765625 290.765625 244.53125 290.765625 187.5 C 290.765625 130.46875 244.53125 84.234375 187.5 84.234375 Z M 187.5 84.234375 " clip-rule="nonzero"/></clipPath><clipPath id="5fc60964b8"><path d="M 0.234375 0.234375 L 206.765625 0.234375 L 206.765625 206.765625 L 0.234375 206.765625 Z M 0.234375 0.234375 " clip-rule="nonzero"/></clipPath><clipPath id="52576a7fa4"><path d="M 103.5 0.234375 C 46.46875 0.234375 0.234375 46.46875 0.234375 103.5 C 0.234375 160.53125 46.46875 206.765625 103.5 206.765625 C 160.53125 206.765625 206.765625 160.53125 206.765625 103.5 C 206.765625 46.46875 160.53125 0.234375 103.5 0.234375 Z M 103.5 0.234375 " clip-rule="nonzero"/></clipPath><clipPath id="c3595bfcfb"><rect x="0" width="207" y="0" height="207"/></clipPath><clipPath id="e0ab00d56b"><rect x="0" width="102" y="0" height="42"/></clipPath><clipPath id="ebc39d2c5a"><path d="M 169 106.914062 L 206 106.914062 L 206 122 L 169 122 Z M 169 106.914062 " clip-rule="nonzero"/></clipPath><clipPath id="590325e2bf"><rect x="0" width="121" y="0" height="58"/></clipPath><clipPath id="a45db066b5"><path d="M 132.441406 194.292969 L 242.691406 194.292969 L 242.691406 225.042969 L 132.441406 225.042969 Z M 132.441406 194.292969 " clip-rule="nonzero"/></clipPath></defs><g clip-path="url(#15db2f2379)"><g clip-path="url(#7ca5ab87bb)"><g transform="matrix(1, 0, 0, 1, 84, 84)"><g clip-path="url(#c3595bfcfb)"><g clip-path="url(#5fc60964b8)"><g clip-path="url(#52576a7fa4)"><path fill="#dbc3b8" d="M 0.234375 0.234375 L 206.765625 0.234375 L 206.765625 206.765625 L 0.234375 206.765625 Z M 0.234375 0.234375 " fill-opacity="1" fill-rule="nonzero"/></g></g></g></g></g></g><g transform="matrix(1, 0, 0, 1, 136, 84)"><g clip-path="url(#e0ab00d56b)"><g fill="#8f3013" fill-opacity="1"><g transform="translate(13.991875, 37.483615)"><g><path d="M 5.03125 -5.15625 C 3.769531 -3.800781 2.515625 -2.976562 1.265625 -2.6875 C 0.015625 -2.394531 -1.140625 -2.660156 -2.203125 -3.484375 L -1.078125 -4.703125 C -0.191406 -3.992188 0.691406 -3.726562 1.578125 -3.90625 C 2.460938 -4.082031 3.390625 -4.695312 4.359375 -5.75 C 5.210938 -6.664062 5.703125 -7.515625 5.828125 -8.296875 C 5.960938 -9.085938 5.726562 -9.757812 5.125 -10.3125 C 4.769531 -10.644531 4.382812 -10.832031 3.96875 -10.875 C 3.550781 -10.914062 3.035156 -10.796875 2.421875 -10.515625 C 1.816406 -10.234375 1.054688 -9.757812 0.140625 -9.09375 C -1.316406 -8.019531 -2.550781 -7.335938 -3.5625 -7.046875 C -4.570312 -6.753906 -5.441406 -6.945312 -6.171875 -7.625 C -6.984375 -8.375 -7.242188 -9.316406 -6.953125 -10.453125 C -6.660156 -11.585938 -5.941406 -12.773438 -4.796875 -14.015625 C -3.640625 -15.265625 -2.515625 -16.03125 -1.421875 -16.3125 C -0.335938 -16.59375 0.644531 -16.421875 1.53125 -15.796875 L 0.421875 -14.59375 C -0.359375 -15.070312 -1.128906 -15.195312 -1.890625 -14.96875 C -2.648438 -14.75 -3.4375 -14.203125 -4.25 -13.328125 C -5.039062 -12.472656 -5.503906 -11.691406 -5.640625 -10.984375 C -5.773438 -10.273438 -5.59375 -9.691406 -5.09375 -9.234375 C -4.789062 -8.953125 -4.457031 -8.800781 -4.09375 -8.78125 C -3.738281 -8.769531 -3.273438 -8.894531 -2.703125 -9.15625 C -2.140625 -9.425781 -1.40625 -9.882812 -0.5 -10.53125 C 0.59375 -11.3125 1.523438 -11.890625 2.296875 -12.265625 C 3.078125 -12.640625 3.785156 -12.800781 4.421875 -12.75 C 5.066406 -12.707031 5.679688 -12.414062 6.265625 -11.875 C 7.109375 -11.09375 7.414062 -10.101562 7.1875 -8.90625 C 6.96875 -7.707031 6.25 -6.457031 5.03125 -5.15625 Z M 5.03125 -5.15625 "/></g></g></g><g fill="#8f3013" fill-opacity="1"><g transform="translate(26.767454, 24.849277)"><g><path d="M 8.296875 -7.3125 L 1.515625 -4.328125 L 1.328125 -0.59375 L 0.15625 -0.0625 L 1.015625 -14.703125 L 1.90625 -15.09375 L 12.953125 -5.703125 L 11.0625 -4.875 Z M 7.546875 -7.9375 L 1.921875 -12.84375 L 1.5625 -5.296875 Z M 7.546875 -7.9375 "/></g></g></g><g fill="#8f3013" fill-opacity="1"><g transform="translate(43.768893, 18.2644)"><g><path d="M 1.28125 -12.875 L 3.21875 -12.875 L 11.09375 -2.96875 L 11.03125 -12.9375 L 12.65625 -12.9375 L 12.734375 -0.078125 L 11.78125 -0.078125 L 2.90625 -11.203125 L 2.984375 -0.015625 L 1.359375 -0.015625 Z M 1.28125 -12.875 "/></g></g></g><g fill="#8f3013" fill-opacity="1"><g transform="translate(61.806814, 19.039547)"><g><path d="M 9.75 -8.953125 L 4.71875 -11.015625 L 5.046875 -11.828125 L 16.859375 -6.96875 L 16.53125 -6.15625 L 11.515625 -8.21875 L 6.953125 2.859375 L 5.1875 2.125 Z M 9.75 -8.953125 "/></g></g></g><g fill="#8f3013" fill-opacity="1"><g transform="translate(77.363222, 26.010737)"><g><path d="M 5.375 5.859375 C 4.375 4.816406 3.703125 3.738281 3.359375 2.625 C 3.023438 1.507812 3.023438 0.410156 3.359375 -0.671875 C 3.691406 -1.765625 4.363281 -2.796875 5.375 -3.765625 C 6.363281 -4.710938 7.40625 -5.328125 8.5 -5.609375 C 9.59375 -5.898438 10.6875 -5.847656 11.78125 -5.453125 C 12.875 -5.066406 13.921875 -4.351562 14.921875 -3.3125 C 15.921875 -2.269531 16.59375 -1.195312 16.9375 -0.09375 C 17.28125 1.007812 17.289062 2.101562 16.96875 3.1875 C 16.644531 4.269531 15.988281 5.285156 15 6.234375 C 13.988281 7.203125 12.929688 7.832031 11.828125 8.125 C 10.722656 8.414062 9.617188 8.367188 8.515625 7.984375 C 7.421875 7.609375 6.375 6.898438 5.375 5.859375 Z M 6.015625 5.25 C 7.117188 6.394531 8.332031 6.929688 9.65625 6.859375 C 10.988281 6.785156 12.320312 6.109375 13.65625 4.828125 C 14.957031 3.578125 15.664062 2.296875 15.78125 0.984375 C 15.894531 -0.316406 15.394531 -1.546875 14.28125 -2.703125 C 13.164062 -3.859375 11.953125 -4.410156 10.640625 -4.359375 C 9.328125 -4.304688 8.015625 -3.648438 6.703125 -2.390625 C 5.367188 -1.109375 4.640625 0.191406 4.515625 1.515625 C 4.398438 2.847656 4.898438 4.09375 6.015625 5.25 Z M 6.015625 5.25 "/></g></g></g></g></g><path fill="#8f3013" d="M 179.050781 226.488281 C 179.894531 227.515625 180.089844 227.6875 180.304688 227.566406 C 180.433594 227.574219 180.554688 227.519531 180.683594 227.410156 C 181.40625 226.8125 181.339844 226.296875 180.300781 224.425781 C 178.464844 221.105469 178.738281 217.570312 181.046875 214.875 C 185.542969 209.625 189.957031 213.4375 190.980469 211.242188 C 192.125 209.019531 182.753906 208.378906 178.910156 214.101562 C 176.320312 217.957031 176.378906 223.25 179.050781 226.488281 Z M 179.050781 226.488281 " fill-opacity="1" fill-rule="nonzero"/><path fill="#8f3013" d="M 182.429688 203.832031 C 183.226562 204.355469 183.363281 204.339844 184.109375 203.644531 C 184.464844 203.308594 185.0625 202.523438 184.875 201.894531 C 184.863281 201.425781 183.777344 200.316406 182.21875 200.316406 C 178.792969 200.316406 178.386719 206.105469 180.09375 209.699219 C 180.460938 210.476562 180.582031 210.730469 180.902344 210.660156 C 181.390625 210.835938 181.859375 210.34375 181.945312 210.101562 C 182.421875 209.628906 180.964844 204.820312 181.328125 203.875 C 181.539062 203.320312 181.644531 203.316406 182.429688 203.832031 Z M 182.429688 203.832031 " fill-opacity="1" fill-rule="nonzero"/><path fill="#8f3013" d="M 184.324219 213.386719 C 184.203125 213.199219 183.863281 213.421875 183.683594 213.5625 C 183.210938 213.800781 182.691406 214.214844 182.691406 214.460938 C 182.691406 214.667969 184.480469 217.585938 186.671875 220.953125 C 188.863281 224.316406 190.714844 227.070312 190.785156 227.070312 C 191.167969 227.070312 192.351562 226.257812 192.351562 225.992188 C 192.351562 225.75 184.632812 213.453125 184.324219 213.386719 Z M 184.324219 213.386719 " fill-opacity="1" fill-rule="nonzero"/><path fill="#8f3013" d="M 221.4375 155.972656 L 221.207031 155.71875 L 221.105469 155.8125 C 220.835938 155.726562 220.703125 155.835938 220.089844 156.394531 C 219.230469 157.175781 217.1875 158.523438 216.039062 159.195312 L 216.070312 159.214844 C 217.160156 159.769531 219.171875 160.722656 219.996094 161.636719 C 220.53125 162.226562 220.96875 162.464844 221.378906 162.363281 C 221.726562 162.375 222.230469 161.71875 222.292969 161.5 C 222.40625 161.417969 222.457031 161.445312 222.289062 161.222656 C 222.183594 160.832031 221.703125 160.382812 220.453125 159.074219 C 220.699219 158.816406 221.941406 157.535156 222.160156 157.257812 C 222.246094 157.238281 222.28125 157.179688 222.273438 157.09375 C 222.601562 156.546875 222.089844 156.246094 221.4375 155.972656 Z M 221.4375 155.972656 " fill-opacity="1" fill-rule="nonzero"/><path fill="#8f3013" d="M 191.503906 178.785156 C 191.246094 178.710938 189.878906 179.105469 189.5 180.417969 C 189.382812 180.699219 189.324219 180.769531 189.441406 181.050781 C 189.515625 181.769531 190.058594 182.472656 191.035156 182.882812 C 192.894531 183.652344 197.113281 182.160156 196.058594 175.570312 C 195.476562 171.929688 195.296875 171.65625 194.066406 172.558594 C 194.0625 172.558594 194.046875 172.574219 194.046875 172.574219 C 192.796875 173.488281 194.738281 175.191406 193.902344 179.066406 C 193.179688 181.582031 192.371094 178.757812 191.503906 178.785156 Z M 191.503906 178.785156 " fill-opacity="1" fill-rule="nonzero"/><path fill="#8f3013" d="M 185.40625 250.589844 C 186.992188 248.664062 186.839844 248.773438 187.609375 248.207031 C 187.628906 248.222656 188.644531 249.328125 188.660156 249.347656 C 189.785156 250.566406 189.863281 250.59375 190.351562 249.925781 C 191.613281 248.203125 190.132812 248.679688 187.582031 243.710938 C 184.878906 248.996094 183.789062 248.277344 184.808594 249.734375 Z M 185.40625 250.589844 " fill-opacity="1" fill-rule="nonzero"/><path fill="#8f3013" d="M 195.609375 167.839844 C 191.390625 171.652344 188.171875 170.515625 184.449219 170.839844 C 183.628906 170.691406 183.378906 170.613281 183.285156 171.269531 C 182.679688 172.359375 183.5625 172.757812 184.734375 172.925781 L 184.734375 172.921875 C 190.726562 173.777344 195.8125 171.4375 199.007812 167.355469 C 197.074219 166.472656 197.328125 166.285156 195.609375 167.839844 Z M 195.609375 167.839844 " fill-opacity="1" fill-rule="nonzero"/><path fill="#8f3013" d="M 194.824219 230.304688 C 194.386719 229.234375 194.378906 229.230469 193.527344 229.917969 C 192.582031 230.6875 192.8125 230.859375 193.25 232.320312 C 193.339844 232.707031 194.148438 236.640625 193.613281 236.96875 C 193.5 236.953125 193.335938 236.863281 193.113281 236.746094 C 192.832031 236.59375 192.554688 236.507812 192.289062 236.472656 C 191.832031 236.277344 191.652344 236.371094 191.503906 236.484375 C 190.707031 236.574219 189.476562 238.007812 190.691406 239.351562 C 191.496094 240.238281 193.355469 240.300781 194.488281 239.507812 C 196.6875 237.96875 195.847656 232.808594 194.824219 230.304688 Z M 194.824219 230.304688 " fill-opacity="1" fill-rule="nonzero"/><path fill="#8f3013" d="M 215.183594 151.636719 C 216.328125 152.363281 218.164062 152.335938 218.691406 151.808594 C 219.0625 151.4375 216.699219 149.816406 214.832031 149.160156 C 210.96875 147.800781 206.808594 149.046875 206.285156 149.132812 L 206.375 149.164062 L 205.914062 149.304688 C 210.828125 150.730469 213.550781 150.601562 215.183594 151.636719 Z M 215.183594 151.636719 " fill-opacity="1" fill-rule="nonzero"/><path fill="#8f3013" d="M 180.132812 253.078125 C 180.363281 253.085938 181.921875 253.113281 181.945312 252.875 C 182.082031 252.300781 181.164062 251.222656 180.261719 251.222656 C 176.625 251.222656 186.640625 246.5625 185.613281 245.527344 C 185.378906 244.785156 179.65625 247.589844 178.984375 248.058594 C 177.167969 249.316406 176.496094 250.976562 177.308594 252.214844 C 177.792969 252.953125 178.195312 253.101562 180.132812 253.078125 Z M 180.132812 253.078125 " fill-opacity="1" fill-rule="nonzero"/><path fill="#8f3013" d="M 184.476562 261.332031 C 186.316406 263.066406 186.554688 263.191406 186.785156 262.539062 C 187.132812 261.570312 186.875 260.917969 185.628906 259.582031 C 182.191406 255.90625 184.425781 253.0625 182.449219 253.484375 C 182.101562 253.433594 181.203125 254.070312 181.203125 254.96875 C 181.203125 256.925781 182.515625 259.476562 184.476562 261.332031 Z M 184.476562 261.332031 " fill-opacity="1" fill-rule="nonzero"/><path fill="#8f3013" d="M 179.898438 246.824219 C 180.582031 245.152344 180.832031 244.945312 180.085938 243.445312 C 178.859375 240.984375 178.210938 233.660156 177.667969 235.398438 C 177.289062 236.003906 176.039062 242.648438 179.101562 245.960938 Z M 179.898438 246.824219 " fill-opacity="1" fill-rule="nonzero"/><path fill="#8f3013" d="M 225.078125 164.734375 C 225.074219 164.722656 225.074219 164.710938 225.039062 164.714844 C 224.492188 164.445312 223 165.691406 223.371094 166.851562 C 223.421875 167.015625 223.457031 167.15625 223.476562 167.265625 C 223.410156 167.460938 223.300781 167.542969 223.148438 167.511719 C 221.835938 166.492188 218.640625 160.800781 218.042969 161.199219 L 217.628906 160.746094 C 218.082031 162.308594 218.996094 167.402344 221.828125 169.128906 C 226.140625 171.757812 225.875 165.226562 225.078125 164.734375 Z M 225.078125 164.734375 " fill-opacity="1" fill-rule="nonzero"/><path fill="#8f3013" d="M 223.703125 153.996094 C 222.914062 153.394531 222.582031 153.15625 222.332031 153.21875 L 222.136719 153.09375 L 222.023438 153.453125 C 220.613281 155.152344 221.832031 154.925781 223.023438 156.128906 C 225.984375 159.355469 222.324219 162.644531 221.921875 163.25 C 221.753906 163.097656 221.6875 163.28125 221.722656 163.613281 C 221.613281 163.875 221.617188 164.085938 221.714844 164.300781 C 221.738281 164.480469 221.820312 164.636719 221.953125 164.769531 C 223.46875 166.285156 229.761719 158.617188 223.703125 153.996094 Z M 223.703125 153.996094 " fill-opacity="1" fill-rule="nonzero"/><path fill="#8f3013" d="M 225.796875 154.21875 C 225.660156 154.878906 226.28125 154.988281 226.921875 154.988281 C 230.554688 154.988281 232.402344 158.652344 234.441406 158.6875 C 235.460938 158.703125 235.46875 158.691406 234.917969 157.625 C 233.039062 153.996094 225.859375 151.234375 225.796875 154.21875 Z M 225.796875 154.21875 " fill-opacity="1" fill-rule="nonzero"/><path fill="#8f3013" d="M 233.761719 159.46875 C 233.625 159.40625 233.480469 159.46875 233.355469 159.554688 C 232.976562 159.675781 232.722656 159.917969 232.503906 160.328125 C 231.914062 161.433594 229.488281 162.816406 227.238281 163.328125 C 226.007812 163.605469 225.5625 163.566406 225.707031 164.078125 C 225.710938 164.203125 225.753906 164.359375 225.828125 164.554688 C 226.523438 166.429688 231.128906 164.914062 233.875 161.925781 C 235 160.699219 234.371094 161.234375 235.566406 160.039062 L 235.394531 159.992188 C 235.667969 159.457031 234.339844 159.402344 233.761719 159.46875 Z M 233.761719 159.46875 " fill-opacity="1" fill-rule="nonzero"/><path fill="#8f3013" d="M 207.804688 161.707031 C 207.4375 162.015625 207.257812 162.347656 207.253906 162.710938 C 207.09375 163.21875 207.453125 163.554688 208.730469 164.914062 C 208.691406 164.96875 208.644531 165.023438 208.597656 165.078125 C 207.75 165.398438 207.304688 165.605469 206.433594 165.703125 C 200.574219 166.148438 189.121094 158.742188 189.019531 158.566406 C 193.714844 150.382812 197.378906 143.796875 195.832031 138.59375 C 194.539062 134.238281 190.105469 134.613281 189.425781 137.21875 C 189.351562 137.238281 189.339844 137.332031 189.378906 137.464844 C 189.308594 138.230469 189.855469 138.925781 190.976562 139.351562 C 191.890625 139.699219 192.046875 139.640625 192.421875 138.816406 C 193.011719 137.519531 193.347656 137.769531 193.800781 139.066406 C 193.945312 139.480469 193.945312 139.152344 193.976562 143.128906 C 193.363281 146.085938 187.949219 156.734375 187.21875 157.492188 C 187.148438 157.503906 187.054688 157.507812 186.949219 157.496094 C 186.273438 157.183594 184.167969 156.089844 181.761719 154.804688 C 159.144531 142.695312 162.511719 160.757812 167.132812 156.613281 C 168.714844 155.199219 166.949219 153.875 166.722656 153.871094 C 166.660156 153.820312 166.605469 153.773438 166.558594 153.730469 C 166.503906 153.601562 166.476562 153.484375 166.488281 153.378906 C 167.980469 152.160156 170.789062 152.472656 172.640625 153.019531 C 175.429688 153.933594 184.886719 158.417969 185.605469 159.242188 C 185.914062 159.617188 185.625 160.34375 184.3125 162.589844 C 182.625 165.472656 177.695312 175.023438 178.90625 179.058594 C 179.425781 180.796875 180.628906 182.421875 181.71875 182.863281 C 182.972656 183.371094 183.636719 183.277344 184.683594 182.457031 C 186.738281 180.839844 184.941406 178.894531 183.980469 178.808594 C 183.351562 178.578125 182.144531 179.851562 181.660156 180.304688 C 181.304688 179.71875 180.941406 178.742188 180.859375 177.722656 C 180.558594 173.492188 186.242188 163.351562 187.917969 160.613281 C 189.402344 161.066406 198.839844 167.726562 205.167969 167.753906 C 215.011719 167.796875 211.03125 158.324219 207.804688 161.703125 Z M 207.804688 161.707031 " fill-opacity="1" fill-rule="nonzero"/><path fill="#8f3013" d="M 169.019531 169.242188 C 169.566406 168.90625 165.121094 167.625 163.367188 167.617188 C 160.761719 167.609375 158.925781 165.433594 157.230469 166.203125 C 156.496094 166.539062 156.398438 166.726562 156.75 167.148438 C 157.296875 167.804688 159.847656 169.132812 161.324219 169.523438 C 162.589844 169.863281 168.359375 169.652344 169.019531 169.242188 Z M 169.019531 169.242188 " fill-opacity="1" fill-rule="nonzero"/><path fill="#8f3013" d="M 152.800781 161.628906 C 152.835938 161.699219 152.886719 161.769531 152.953125 161.847656 C 153.261719 162.21875 153.441406 162.410156 153.824219 162.324219 C 154.300781 162.515625 154.527344 162.1875 154.871094 161.800781 C 156.527344 160.769531 157.113281 160.222656 159.003906 159.140625 C 157.367188 158.304688 156.148438 157.285156 154.773438 156.511719 C 154.039062 155.953125 153.800781 155.882812 153.453125 156.160156 C 153.351562 156.199219 153.257812 156.253906 153.15625 156.328125 C 152.566406 156.757812 152.546875 156.90625 153 157.484375 C 154.253906 159.078125 155.054688 158.578125 153.558594 160.148438 C 152.632812 161.113281 152.46875 161.316406 152.800781 161.628906 Z M 152.800781 161.628906 " fill-opacity="1" fill-rule="nonzero"/><path fill="#8f3013" d="M 152.542969 148.832031 C 152.386719 148.617188 151.972656 148.6875 151.644531 148.683594 C 150.09375 148.664062 149.617188 149.269531 149.625 151.253906 C 149.628906 152.625 149.769531 153.382812 150.070312 153.554688 C 150.246094 153.878906 150.40625 153.742188 150.984375 153.011719 C 151.464844 152.429688 151.847656 151.695312 151.847656 151.40625 C 151.847656 149.3125 154.261719 154.410156 155.886719 156.195312 C 159.582031 160.25 155.3125 151.222656 154.910156 150.75 C 153.980469 149.667969 153.277344 149.082031 152.542969 148.832031 Z M 152.542969 148.832031 " fill-opacity="1" fill-rule="nonzero"/><path fill="#8f3013" d="M 155.820312 165.523438 C 157.992188 161.164062 158.332031 158.023438 153.285156 165.855469 C 153.046875 166.226562 152.035156 167.699219 151.6875 167.566406 C 151.273438 167.078125 152.328125 166.21875 151.257812 165.503906 C 150.933594 165.175781 150.925781 165.304688 149.617188 164.628906 C 149.617188 168.011719 149.523438 168.625 150.429688 169.261719 C 152.691406 170.84375 154.671875 168.050781 155.820312 165.523438 Z M 155.820312 165.523438 " fill-opacity="1" fill-rule="nonzero"/><path fill="#8f3013" d="M 148.117188 154.984375 C 148.609375 154.980469 148.898438 154.949219 149.050781 154.84375 C 149.410156 154.738281 149.421875 154.523438 149.214844 153.964844 C 148.445312 151.914062 142.320312 153.511719 140.046875 157.84375 L 139.5 158.703125 C 143.722656 158.703125 142.996094 155.730469 148.117188 154.984375 Z M 148.117188 154.984375 " fill-opacity="1" fill-rule="nonzero"/><path fill="#8f3013" d="M 177.835938 187.636719 C 178.320312 188.589844 178.632812 189.058594 178.917969 189.101562 L 179.054688 189.320312 L 179.246094 188.964844 C 179.375 188.835938 179.511719 188.625 179.671875 188.328125 C 180.03125 187.652344 180.015625 187.230469 179.585938 186.191406 C 178.96875 184.710938 178.535156 181.328125 178.210938 179.671875 C 177.703125 176.921875 177.480469 177.816406 177.117188 179.140625 C 176.484375 181.4375 176.84375 185.699219 177.835938 187.636719 Z M 177.835938 187.636719 " fill-opacity="1" fill-rule="nonzero"/><path fill="#8f3013" d="M 195.300781 246.753906 C 195.414062 246.75 196.011719 245.953125 196.625 244.992188 C 197.417969 243.742188 197.648438 243.238281 197.710938 241.597656 C 198.175781 238.785156 197.449219 235.566406 197.203125 235.316406 L 197.050781 234.691406 L 196.976562 235.105469 L 196.964844 235.0625 C 195.609375 244.394531 194 243.738281 194.726562 245.746094 C 194.929688 246.308594 195.1875 246.761719 195.300781 246.753906 Z M 195.300781 246.753906 " fill-opacity="1" fill-rule="nonzero"/><path fill="#8f3013" d="M 188.589844 111.515625 C 187.523438 111.515625 188.023438 113.632812 189.136719 114.507812 C 190.398438 115.5 191.609375 118.136719 191.609375 119.902344 L 191.605469 119.902344 C 191.605469 121.183594 191.585938 121.296875 192.519531 120.949219 C 192.648438 120.960938 192.785156 120.910156 192.925781 120.792969 C 194.027344 120.355469 194.089844 119.449219 193.21875 116.886719 C 192.410156 114.511719 189.3125 111.515625 188.589844 111.515625 Z M 188.589844 111.515625 " fill-opacity="1" fill-rule="nonzero"/><path fill="#8f3013" d="M 186.609375 111.511719 L 186.585938 111.324219 L 186.34375 111.570312 C 185.226562 112.09375 181.871094 114.828125 181.339844 118.6875 C 181.125 120.273438 181.179688 120.445312 181.988281 120.75 C 183.167969 121.195312 183.433594 120.984375 183.4375 119.570312 C 183.441406 118.40625 184.878906 115.632812 185.566406 114.917969 C 185.863281 114.605469 186.105469 114.328125 186.292969 114.074219 C 187.105469 113.453125 187.246094 111.523438 186.609375 111.511719 Z M 186.609375 111.511719 " fill-opacity="1" fill-rule="nonzero"/><path fill="#8f3013" d="M 177.53125 140.625 L 177.601562 141.050781 C 178.984375 136.488281 179.101562 133.140625 180.132812 131.121094 C 181.175781 129.074219 180.308594 129.171875 180.027344 128.050781 C 179.941406 128.148438 179.539062 128.621094 179.140625 128.996094 C 176.574219 131.40625 176.695312 138.765625 177.53125 140.625 Z M 177.53125 140.625 " fill-opacity="1" fill-rule="nonzero"/><path fill="#8f3013" d="M 176.597656 151.160156 C 176.660156 151.203125 176.796875 151.3125 176.796875 151.3125 C 178.726562 152.53125 179.375 148.589844 185.214844 147.511719 C 191.597656 146.722656 191.15625 148.695312 191.878906 146.78125 C 192.265625 145.753906 192.234375 145.707031 190.921875 145.4375 C 185.804688 144.386719 181.140625 145.886719 177.667969 149.085938 C 176.078125 150.550781 175.992188 150.71875 176.597656 151.160156 Z M 176.597656 151.160156 " fill-opacity="1" fill-rule="nonzero"/><path fill="#8f3013" d="M 187.40625 130.410156 C 187.472656 130.472656 187.5 130.476562 187.578125 130.394531 C 187.789062 130.292969 188.027344 129.921875 188.292969 129.273438 C 189.386719 126.640625 191.230469 126.261719 190.507812 124.914062 C 189.867188 123.714844 189.777344 123.980469 187.519531 126.140625 C 185.824219 124.519531 184.980469 123.292969 184.445312 125.140625 C 183.800781 126.113281 184.761719 125.871094 186.59375 128.980469 C 186.597656 128.984375 186.597656 128.992188 186.601562 128.996094 C 187.15625 130.222656 187.226562 130.363281 187.40625 130.410156 Z M 187.40625 130.410156 " fill-opacity="1" fill-rule="nonzero"/><path fill="#8f3013" d="M 190.519531 158.332031 C 191.207031 158.332031 197.554688 154.894531 197.554688 154.523438 C 197.554688 154.34375 197.375 153.863281 197.15625 153.453125 C 196.773438 152.734375 196.707031 152.746094 194.648438 153.894531 C 192.089844 155.324219 191.613281 155.726562 190.75 157.191406 C 190.308594 157.941406 190.230469 158.332031 190.519531 158.332031 Z M 190.519531 158.332031 " fill-opacity="1" fill-rule="nonzero"/><path fill="#8f3013" d="M 182.039062 137.867188 C 182.074219 137.90625 182.113281 137.945312 182.15625 137.992188 C 183.050781 139.894531 183.675781 139.648438 184.292969 139.324219 C 186.078125 138.386719 185.980469 136.898438 184.773438 135.929688 C 182.945312 134.144531 177.5625 135.679688 178.988281 143.554688 C 179.21875 144.828125 179.484375 145.992188 179.578125 146.144531 C 179.71875 146.375 180.734375 146.050781 181.167969 145.703125 C 181.550781 145.550781 181.503906 145.511719 181.453125 145.238281 C 181.5 144.890625 180.421875 141.558594 181.1875 139.246094 C 181.429688 138.507812 181.792969 137.980469 182.039062 137.867188 Z M 182.039062 137.867188 " fill-opacity="1" fill-rule="nonzero"/><path fill="#8f3013" d="M 186.875 156.457031 C 187.238281 156.476562 183.390625 149.214844 183.113281 149.121094 C 183.078125 149.074219 183.050781 149.050781 183.039062 149.050781 C 182.859375 149.042969 182.320312 149.414062 182.171875 149.523438 C 181.386719 150.097656 181.414062 150.160156 182.644531 152.566406 C 183.574219 154.378906 184.253906 155.203125 185.246094 155.730469 C 185.480469 155.851562 186.632812 156.445312 186.875 156.457031 Z M 186.875 156.457031 " fill-opacity="1" fill-rule="nonzero"/><path fill="#8f3013" d="M 149.097656 144.265625 C 149.933594 144.792969 151.28125 145.714844 152.894531 146.292969 C 154.550781 146.882812 162.113281 146.796875 174.3125 146.8125 L 174.683594 146.8125 C 173.429688 145.558594 173.894531 146.023438 172.640625 144.769531 C 158.433594 144.667969 155.449219 144.734375 153.128906 144.003906 C 150.878906 143.296875 150.832031 143.472656 149.097656 144.265625 Z M 149.097656 144.265625 " fill-opacity="1" fill-rule="nonzero"/><path fill="#8f3013" d="M 225.859375 173.695312 C 225.832031 173.683594 221.175781 171.535156 221.148438 171.519531 C 215.671875 171.464844 200.773438 171.183594 200.90625 171.617188 C 200.738281 171.730469 201.914062 173.039062 202.359375 173.214844 C 204.195312 174.007812 219.316406 173.148438 222.078125 174.308594 C 224.339844 175.257812 223.828125 175.261719 225.859375 173.695312 Z M 225.859375 173.695312 " fill-opacity="1" fill-rule="nonzero"/><path fill="#8f3013" d="M 223.691406 148.679688 C 219.820312 148.300781 217.25 157.136719 217.671875 157.164062 L 217.660156 157.207031 L 217.726562 157.160156 C 218.050781 157.09375 219.054688 156.398438 219.527344 155.855469 C 219.859375 155.480469 220.421875 154.585938 220.777344 153.871094 C 221.421875 152.566406 222.765625 150.898438 223.164062 150.898438 C 223.28125 150.898438 223.40625 151.339844 223.433594 151.878906 C 223.492188 152.855469 224.179688 153.585938 224.847656 153.375 C 225.925781 153.035156 226.019531 148.441406 223.691406 148.679688 Z M 223.691406 148.679688 " fill-opacity="1" fill-rule="nonzero"/><g clip-path="url(#ebc39d2c5a)"><path fill="#8f3013" d="M 169.855469 121.523438 C 170.019531 121.789062 170.210938 121.914062 170.476562 121.882812 C 170.527344 121.933594 170.542969 121.925781 170.632812 121.855469 C 170.878906 121.980469 171.265625 121.882812 171.078125 121.699219 C 171.070312 121.6875 171.0625 121.675781 171.058594 121.664062 C 172.824219 120.316406 173.015625 119.539062 174.578125 118.929688 C 175.542969 118.683594 177.800781 118.804688 178.496094 119.058594 C 178.792969 119.167969 178.992188 119.210938 179.136719 119.15625 L 179.296875 119.199219 C 181.113281 111.292969 186.273438 108.882812 187.660156 108.984375 C 188.660156 109.121094 191.519531 110.773438 193.132812 112.886719 C 194.4375 114.695312 195.300781 117.820312 195.304688 118.125 C 195.3125 118.484375 195.335938 118.6875 195.523438 118.789062 C 195.742188 119.605469 197.050781 118.5 199.355469 118.6875 C 202.695312 119.097656 203.621094 122.492188 204.664062 121.640625 C 205.480469 121.164062 205.386719 120.695312 205.050781 120.191406 C 204.632812 119.039062 202.839844 117.019531 198.882812 116.476562 C 197.910156 116.34375 197.121094 116.234375 196.765625 115.273438 C 195.449219 111.703125 191.273438 106.953125 187.539062 106.953125 C 184.675781 106.953125 180.679688 110.277344 178.710938 114.292969 C 177.34375 117.074219 177.355469 115.832031 174.511719 116.785156 C 170.789062 117.761719 169.375 120.742188 169.855469 121.523438 Z M 169.855469 121.523438 " fill-opacity="1" fill-rule="nonzero"/></g><path fill="#8f3013" d="M 195.132812 148.679688 C 194.902344 149.414062 195.570312 150.203125 196.09375 150.800781 C 196.765625 151.570312 198.671875 154.304688 199.0625 156.601562 C 199.429688 159.308594 198.933594 163.003906 199.796875 163.550781 C 200.6875 164.113281 200.847656 163.980469 201.296875 162.324219 C 203.234375 155.1875 196.128906 145.542969 195.132812 148.683594 Z M 195.132812 148.679688 " fill-opacity="1" fill-rule="nonzero"/><path fill="#8f3013" d="M 214.679688 162.910156 C 214.644531 163.085938 214.699219 163.152344 214.863281 163.128906 C 215.179688 163.507812 215.5625 163.886719 216.019531 164.289062 C 219.914062 167.710938 216.226562 161.792969 215.589844 160.101562 C 215.359375 159.203125 215.34375 158.8125 216.6875 155.941406 C 217.40625 154.414062 217.988281 153.066406 217.988281 152.949219 C 217.988281 152.027344 210.089844 157.242188 214.679688 162.910156 Z M 214.679688 162.910156 " fill-opacity="1" fill-rule="nonzero"/><path fill="#8f3013" d="M 145.902344 165.042969 C 149.417969 166.113281 149.472656 164.121094 149.210938 163.839844 C 149.160156 163.640625 148.984375 163.550781 148.671875 163.535156 C 146.941406 162.875 144.960938 162.910156 143.105469 160.871094 C 142.777344 160.507812 142.4375 160.140625 142.160156 159.90625 C 141.886719 159.273438 139.878906 159.601562 139.726562 159.9375 L 139.421875 160.027344 C 141.546875 162.335938 142.914062 164.136719 145.902344 165.042969 Z M 145.902344 165.042969 " fill-opacity="1" fill-rule="nonzero"/><path fill="#8f3013" d="M 189.804688 165.390625 C 191.757812 169.078125 191.964844 169.289062 193.148438 168.800781 C 194.125 168.398438 191.839844 164.035156 189.855469 162.671875 C 189.71875 162.566406 188.101562 161.492188 188.121094 161.746094 L 187.761719 161.546875 C 190.472656 166.585938 188.523438 162.96875 189.804688 165.390625 Z M 189.804688 165.390625 " fill-opacity="1" fill-rule="nonzero"/><path fill="#8f3013" d="M 175.074219 125.074219 C 173.253906 121.617188 173.070312 121.085938 172.667969 121.398438 C 172.605469 121.417969 172.546875 121.476562 172.480469 121.574219 C 171.4375 122.390625 171.914062 123.40625 172.324219 124.589844 C 173.886719 129.109375 172.078125 143.292969 173.84375 144.941406 C 174.039062 145.125 174.917969 145.851562 175.007812 145.664062 C 175.417969 145.941406 175.101562 127.851562 175.074219 125.074219 Z M 175.074219 125.074219 " fill-opacity="1" fill-rule="nonzero"/><path fill="#8f3013" d="M 150.851562 163.8125 C 151.210938 164.191406 150.507812 163.429688 152.378906 165.460938 C 153.589844 163.964844 153.882812 163.863281 153.226562 163.273438 C 152.804688 162.886719 150.996094 161.53125 150.789062 159.429688 C 151.121094 154.914062 154.28125 155.644531 153.34375 153.890625 C 153.191406 153.605469 153.054688 153.40625 152.90625 153.296875 C 153.019531 153.121094 152.851562 153.074219 152.582031 153.195312 C 152.054688 153.230469 145.25 157.894531 150.851562 163.8125 Z M 150.851562 163.8125 " fill-opacity="1" fill-rule="nonzero"/><path fill="#8f3013" d="M 157.285156 164.742188 C 157.007812 165.589844 157.316406 165.5625 158.699219 164.609375 C 162.320312 162.121094 162.671875 157.109375 159.429688 154.261719 C 157.128906 152.242188 156.796875 152.96875 158.535156 156.230469 C 159.917969 158.816406 159.921875 159.375 158.574219 161.996094 C 158.285156 162.558594 157.503906 163.894531 157.339844 164.546875 C 157.328125 164.589844 157.296875 164.703125 157.285156 164.742188 Z M 157.285156 164.742188 " fill-opacity="1" fill-rule="nonzero"/><path fill="#8f3013" d="M 183.167969 128.4375 C 184.328125 128.796875 184.976562 128.96875 185.277344 128.933594 C 185.5625 129 185.667969 128.953125 185.472656 128.667969 C 185.136719 127.003906 179.53125 124.878906 179.207031 123.601562 C 179.265625 123.460938 179.546875 123.402344 180.03125 123.402344 C 181.484375 123.402344 182.171875 121.882812 181.859375 121.738281 C 181.6875 120.902344 178.625 121.136719 177.835938 121.558594 C 176.789062 122.117188 175.734375 126.113281 183.167969 128.4375 Z M 183.167969 128.4375 " fill-opacity="1" fill-rule="nonzero"/><path fill="#8f3013" d="M 200.742188 151.441406 C 200.398438 151.707031 200.699219 152 200.738281 152.128906 C 200.878906 152.578125 201.03125 152.992188 201.085938 153.054688 C 201.136719 153.117188 202.28125 152.972656 203.621094 152.742188 C 204.773438 152.539062 205.472656 152.457031 206.78125 152.59375 C 207.214844 152.679688 208.265625 153.007812 208.546875 153.28125 C 208.53125 153.472656 208.382812 153.753906 208.148438 154.03125 C 207.898438 154.203125 207.183594 154.566406 207.246094 155.375 L 207.175781 155.457031 L 207.257812 155.542969 C 207.296875 155.90625 207.578125 156.261719 207.828125 156.539062 L 207.828125 156.535156 C 209.554688 158.445312 212.121094 156.074219 211.109375 153.335938 C 209.816406 149.324219 201.417969 150.511719 200.742188 151.441406 Z M 200.742188 151.441406 " fill-opacity="1" fill-rule="nonzero"/><path fill="#8f3013" d="M 174.429688 167.066406 C 174.644531 166.972656 174.308594 166.164062 174.214844 165.957031 C 173.929688 165.332031 173.761719 165.148438 173.3125 165.242188 C 172.910156 165.289062 169.832031 166.367188 166.894531 165.25 C 166.65625 165.074219 166.523438 164.957031 166.5 164.832031 C 166.949219 164.113281 168.695312 163.25 167.210938 161.613281 C 166.457031 160.78125 165.652344 160.75 164.5625 161.511719 C 163.929688 161.953125 163.738281 162.457031 163.738281 163.675781 C 163.738281 165.167969 164.382812 166.328125 166.089844 167.101562 C 166.191406 167.148438 166.625 167.332031 166.953125 167.449219 C 168.472656 167.992188 168.820312 168.273438 173.578125 167.285156 C 174.199219 167.210938 174.386719 167.167969 174.429688 167.066406 Z M 174.429688 167.066406 " fill-opacity="1" fill-rule="nonzero"/><path fill="#8f3013" d="M 237.242188 154.050781 C 233.09375 149.394531 230.398438 150.464844 230.261719 148.464844 C 230.199219 147.269531 230.324219 145.265625 228.121094 142.953125 C 227.75 142.496094 227.359375 142.121094 226.984375 141.871094 C 226.042969 141.082031 225.605469 141.132812 225.042969 141.8125 C 224.863281 142.027344 224.796875 142.207031 224.886719 142.453125 C 224.839844 142.648438 224.925781 142.8125 225.125 142.867188 C 225.917969 143.949219 227.921875 144.765625 227.992188 148.0625 C 227.972656 150.703125 227.058594 151.269531 228.65625 151.269531 C 231.460938 151.269531 237.351562 155.691406 237.675781 159.019531 C 237.65625 162.136719 232.515625 166.226562 228.65625 167.050781 C 228.304688 167.125 228.074219 167.183594 227.929688 167.296875 L 227.796875 167.320312 L 227.808594 167.359375 L 227.738281 167.378906 L 227.757812 167.59375 C 227.523438 168.789062 229.140625 171.367188 226.078125 174.3125 C 225.03125 175.316406 224.863281 175.347656 224.886719 175.695312 C 224.792969 175.9375 224.863281 176.121094 225.042969 176.335938 C 225.179688 176.507812 225.253906 176.613281 225.300781 176.664062 C 225.554688 176.914062 225.605469 176.890625 225.816406 176.863281 C 226.886719 177.035156 229.738281 174.652344 230.207031 170.882812 C 230.613281 167.609375 231.621094 169.199219 235.949219 165.652344 C 237.632812 164.273438 239.917969 160.472656 239.917969 159.160156 C 239.917969 157.128906 237.472656 154.195312 237.242188 154.050781 Z M 237.242188 154.050781 " fill-opacity="1" fill-rule="nonzero"/><path fill="#8f3013" d="M 204.6875 252.75 C 204.242188 252.535156 203.84375 252.765625 203.054688 253.664062 C 201.921875 254.953125 199.855469 256.070312 198.199219 255.8125 C 196.757812 255.566406 195.535156 254.277344 195.234375 256.9375 C 194.972656 259.273438 192.324219 263.285156 188.9375 265.007812 C 187.300781 265.71875 185.003906 264.378906 183.589844 263.300781 C 181.320312 261.316406 179.714844 257.613281 179.714844 256.578125 C 179.714844 256 179.597656 255.664062 179.277344 255.523438 C 179.144531 255.257812 177.738281 255.617188 177.519531 255.675781 C 175.445312 256.234375 173.40625 255.207031 171.945312 253.621094 C 171.226562 252.839844 170.820312 252.308594 170.3125 252.660156 C 169.121094 253.480469 169.972656 254.503906 170.808594 255.453125 C 171.796875 256.582031 173.839844 257.765625 176.820312 257.921875 C 177.816406 258.132812 178.121094 258.789062 178.542969 259.71875 C 179.980469 262.898438 182.445312 265.40625 184.621094 266.578125 C 186.996094 267.960938 188.484375 268.042969 191.511719 265.824219 C 197.832031 261.277344 195.8125 257.914062 198.464844 257.914062 C 202.5 257.914062 205.769531 254.464844 205.253906 253.277344 C 205.210938 252.929688 205.011719 252.820312 204.6875 252.75 Z M 204.6875 252.75 " fill-opacity="1" fill-rule="nonzero"/><path fill="#8f3013" d="M 202.414062 145.125 C 201.96875 145.292969 201.449219 145.730469 201.242188 146.121094 C 201.175781 146.242188 201.125 146.34375 201.128906 146.429688 L 200.710938 146.851562 L 200.714844 146.851562 L 200.710938 146.855469 C 200.710938 146.855469 221.519531 146.628906 221.519531 146.628906 L 222.089844 146.328125 C 223.097656 146.101562 224.652344 145.164062 225.027344 144.777344 C 225.160156 144.707031 225.273438 144.621094 225.21875 144.476562 C 225.320312 144.214844 224.871094 143.9375 224.621094 143.808594 C 223.230469 142.875 223.484375 144.4375 217.761719 144.683594 C 215.429688 144.761719 212.714844 144.773438 202.6875 144.851562 Z M 202.414062 145.125 " fill-opacity="1" fill-rule="nonzero"/><path fill="#8f3013" d="M 147.078125 169.691406 C 147.132812 168.972656 147.25 168.34375 147.238281 167.925781 C 147.289062 167.765625 147.335938 167.558594 147.238281 167.425781 L 147.246094 167.304688 L 146.925781 167.242188 C 146.605469 167.027344 145.992188 166.914062 144.882812 166.691406 C 143.660156 166.445312 135.585938 162.101562 138.039062 157.351562 C 138.832031 155.8125 141.171875 153.007812 145.382812 151.402344 C 146.710938 151.058594 147.246094 151.621094 147.234375 150.558594 C 147.273438 150.460938 147.261719 150.355469 147.222656 150.253906 C 147.144531 149.125 146.863281 147.507812 147.3125 146.023438 C 148.109375 143.953125 150.871094 142.859375 150.003906 141.8125 C 149.347656 141.023438 149.089844 141.074219 147.59375 142.386719 C 146.828125 143.058594 146.144531 143.785156 145.695312 144.710938 C 143.449219 148.695312 146.664062 148.257812 142.347656 150.488281 C 136.925781 153.292969 134.289062 158.183594 135.535156 160.769531 C 136.617188 163.265625 138.839844 165.773438 140.660156 166.867188 C 143.546875 168.894531 144.789062 168.015625 144.789062 170.300781 C 144.789062 173.949219 148.222656 176.957031 149.207031 176.863281 C 149.367188 176.902344 149.480469 176.882812 149.527344 176.796875 C 149.585938 176.761719 149.84375 176.53125 149.996094 176.34375 C 151.148438 174.960938 146.820312 174.621094 147.078125 169.691406 Z M 147.078125 169.691406 " fill-opacity="1" fill-rule="nonzero"/><path fill="#8f3013" d="M 172.992188 173.070312 C 173.726562 172.304688 173.378906 172.667969 174.652344 171.335938 C 157.894531 171.335938 153.355469 171.136719 150.421875 173.054688 C 149.617188 173.585938 149.597656 173.667969 150.164062 174.292969 C 150.625 174.804688 150.785156 174.945312 151.28125 174.746094 C 155.652344 174.023438 149.191406 173.566406 172.523438 173.566406 C 172.65625 173.414062 172.976562 173.105469 172.992188 173.070312 Z M 172.992188 173.070312 " fill-opacity="1" fill-rule="nonzero"/><path fill="#8f3013" d="M 200.238281 172.371094 L 200.234375 172.484375 C 199.503906 172.136719 199.960938 245.203125 199.96875 249.179688 L 200.851562 251.132812 C 201.753906 253.132812 201.898438 253.269531 202.605469 252.796875 C 203.339844 252.308594 203.40625 251.429688 202.796875 250.296875 C 202.125 249.050781 202.167969 243.472656 201.824219 173.957031 C 201.824219 173.957031 200.238281 172.371094 200.238281 172.371094 Z M 200.238281 172.371094 " fill-opacity="1" fill-rule="nonzero"/><path fill="#8f3013" d="M 175.140625 172.398438 L 175.015625 172.523438 C 174.964844 172.085938 173.3125 174.09375 173.027344 174.421875 C 173.027344 247.222656 173.15625 247.539062 172.292969 249.808594 C 171.859375 250.949219 171.511719 251.789062 172.007812 252.285156 C 172.007812 252.285156 172.105469 252.371094 172.226562 252.492188 C 176.230469 256.496094 175.261719 232.207031 175.140625 172.398438 Z M 175.140625 172.398438 " fill-opacity="1" fill-rule="nonzero"/><path fill="#8f3013" d="M 197.476562 252.636719 C 197.597656 252.515625 198.324219 251.464844 197.679688 250.074219 C 196.707031 246.855469 189.609375 245.296875 189.507812 245.398438 C 189.074219 245.832031 190.0625 246.808594 192.527344 248.398438 C 198.949219 252.53125 194.117188 250.496094 193.777344 251.640625 C 193.367188 251.949219 193.09375 252.398438 193.09375 252.875 C 193.09375 253.199219 196.894531 253.222656 197.476562 252.636719 Z M 197.476562 252.636719 " fill-opacity="1" fill-rule="nonzero"/><path fill="#8f3013" d="M 192.976562 200.46875 C 192.925781 200.125 190.421875 200.457031 190.25 202.058594 C 190.035156 202.773438 190.878906 203.535156 191.085938 203.6875 C 192.476562 205.070312 192.25 203.785156 193.429688 203.40625 C 193.894531 203.324219 193.90625 203.910156 193.511719 206.289062 C 193.046875 209.121094 191.816406 211.851562 189.441406 215.335938 C 187.992188 217.457031 187.964844 217.558594 188.566406 218.390625 C 188.972656 218.949219 188.710938 218.492188 189.15625 219.320312 L 189.238281 219.210938 C 189.273438 219.242188 189.328125 219.285156 189.367188 219.257812 C 189.714844 219.339844 192.804688 213.746094 193.003906 213.378906 C 195.460938 209.597656 198.148438 201.359375 192.976562 200.46875 Z M 192.976562 200.46875 " fill-opacity="1" fill-rule="nonzero"/><path fill="#8f3013" d="M 192.554688 249.445312 C 192.082031 249.3125 191.628906 249.382812 191.410156 249.832031 C 190.820312 250.210938 189.902344 251.328125 188.492188 251.808594 C 185.941406 252.527344 184.542969 250.433594 183.648438 249.746094 C 183.636719 249.730469 183.625 249.714844 183.613281 249.699219 C 183.445312 249.242188 183.363281 249.074219 182.6875 249.351562 C 182.066406 249.382812 181.542969 249.996094 181.582031 250.226562 C 181.464844 251 183.25 252.640625 185.105469 253.496094 C 186 253.90625 186.785156 254.125 187.554688 254.15625 C 190.628906 254.519531 195.132812 249.464844 192.554688 249.445312 Z M 192.554688 249.445312 " fill-opacity="1" fill-rule="nonzero"/><path fill="#8f3013" d="M 193.578125 244.929688 C 193.4375 244.382812 192.753906 243.59375 191.917969 242.878906 C 188.757812 239.585938 183.742188 241 181.515625 245.035156 L 181.515625 245.039062 C 181.183594 245.640625 181.246094 245.691406 182.007812 245.453125 C 185.558594 244.339844 186.03125 242.117188 190.035156 243.996094 C 194.40625 246.421875 193.71875 245.460938 193.578125 244.929688 Z M 193.578125 244.929688 " fill-opacity="1" fill-rule="nonzero"/><path fill="#8f3013" d="M 185.707031 133.164062 C 189.316406 133.847656 192.085938 132.066406 193.128906 130.019531 L 193.886719 128.539062 C 189.761719 129.785156 188.59375 132.597656 184.851562 130.234375 C 183.246094 129.222656 181.113281 128.417969 181.207031 128.976562 C 181.125 129.417969 183.953125 132.417969 185.082031 132.929688 C 185.210938 132.992188 185.605469 133.148438 185.703125 133.164062 Z M 185.707031 133.164062 " fill-opacity="1" fill-rule="nonzero"/><path fill="#8f3013" d="M 195.179688 128.363281 C 195.164062 128.359375 195.148438 128.359375 195.132812 128.359375 C 194.957031 128.296875 194.890625 128.394531 194.566406 129.003906 C 193.78125 130.472656 195.386719 130.929688 195.855469 134.179688 C 195.988281 135.097656 196.367188 137 196.691406 138.40625 C 197.351562 141.246094 197.695312 141.105469 198.058594 137.84375 C 198.628906 132.742188 195.992188 128.203125 195.179688 128.363281 Z M 195.179688 128.363281 " fill-opacity="1" fill-rule="nonzero"/><path fill="#8f3013" d="M 183.75 236.535156 C 183.585938 236.386719 183.445312 236.34375 183.25 236.390625 C 183.058594 236.378906 182.871094 236.441406 182.683594 236.570312 C 182.445312 236.648438 181.523438 237.171875 181.300781 236.953125 C 181.140625 236.789062 181.421875 234.367188 181.726562 233.011719 C 182.738281 229.433594 186.539062 223.394531 186.132812 223.972656 C 186.789062 223.035156 186.796875 222.78125 186.375 221.996094 C 185.914062 221.132812 185.289062 220.820312 185.289062 221.449219 C 185.289062 222.257812 175.773438 234.359375 180.300781 239.359375 C 180.671875 239.769531 181.339844 240.003906 182.042969 240.054688 C 184.550781 240.652344 186.089844 237.242188 183.75 236.535156 Z M 183.75 236.535156 " fill-opacity="1" fill-rule="nonzero"/><path fill="#8f3013" d="M 177.75 164.277344 L 177.753906 164.277344 C 178.097656 165.601562 179.554688 164.753906 181.1875 163.882812 C 182.667969 163.09375 183.566406 162.308594 184.121094 161.324219 C 184.558594 160.542969 184.917969 159.8125 184.917969 159.703125 C 184.917969 159.558594 178.597656 162.691406 177.59375 163.328125 C 177.519531 163.378906 177.730469 164.191406 177.75 164.277344 Z M 177.75 164.277344 " fill-opacity="1" fill-rule="nonzero"/><path fill="#8f3013" d="M 192.308594 192.734375 C 192.117188 192.09375 189.566406 192.976562 188.972656 193.167969 C 187.644531 193.324219 187.203125 193.277344 186.4375 193.246094 C 181.472656 191.035156 175.453125 194.824219 177.554688 204.019531 C 177.730469 204.917969 177.726562 204.765625 178.003906 205.976562 L 178.054688 205.714844 C 178.054688 205.714844 179.199219 199.390625 179.734375 197.558594 C 180.441406 195.507812 183.496094 193.570312 186.277344 195.695312 L 187.519531 196.640625 C 190.378906 194.511719 190.480469 194.757812 191.34375 194.375 C 191.738281 194.363281 192.414062 193.476562 192.34375 193.164062 C 192.390625 192.980469 192.386719 192.824219 192.308594 192.734375 Z M 192.308594 192.734375 " fill-opacity="1" fill-rule="nonzero"/><path fill="#8f3013" d="M 197.441406 177.542969 L 197.421875 177.46875 L 197.410156 177.527344 C 196.9375 177.46875 196.523438 182.769531 195.902344 184.960938 C 195.257812 187.195312 194.140625 189.050781 191.890625 189.574219 C 190.023438 189.976562 188.964844 188.910156 187.613281 187.644531 L 187.375 187.808594 C 187.28125 187.820312 187.25 187.855469 187.203125 187.921875 L 186.171875 188.621094 C 183.628906 190.347656 182.6875 189.480469 182.6875 190.890625 C 182.6875 190.890625 182.6875 191.429688 182.6875 191.429688 C 182.6875 191.777344 183.515625 191.789062 183.847656 191.765625 C 186.03125 191.886719 186.703125 190.128906 188.832031 191.144531 C 192.304688 192.800781 195.570312 190.804688 197.265625 187.511719 C 199.261719 183.625 197.625 177.710938 197.441406 177.542969 Z M 197.441406 177.542969 " fill-opacity="1" fill-rule="nonzero"/><path fill="#8f3013" d="M 189.285156 262.546875 C 193.113281 260.105469 195.332031 253.449219 192.304688 253.449219 C 191.203125 253.449219 191.980469 254.625 191.222656 256.726562 C 190.039062 259.765625 187.707031 260.304688 188.058594 261.960938 C 188.082031 262.257812 188.144531 262.609375 188.234375 263.0625 C 188.238281 263.070312 188.246094 263.074219 188.261719 263.074219 L 188.261719 263.171875 C 188.699219 262.828125 188.46875 263.066406 189.285156 262.546875 Z M 189.285156 262.546875 " fill-opacity="1" fill-rule="nonzero"/><path fill="#8f3013" d="M 206.371094 169.085938 C 208.929688 170.324219 213.3125 169.527344 213.570312 169.390625 C 215.945312 168.871094 218.429688 167.425781 218.234375 166.695312 C 218.242188 166.570312 218.203125 166.5 218.109375 166.425781 C 218.058594 166.277344 217.898438 166.183594 217.648438 166.148438 C 216.308594 165.449219 214.160156 167.609375 211.695312 167.617188 C 209.609375 167.621094 206.019531 168.972656 205.914062 169.003906 L 205.941406 169.011719 L 205.914062 169.019531 C 206.34375 169.078125 206.253906 169.066406 206.371094 169.085938 Z M 206.371094 169.085938 " fill-opacity="1" fill-rule="nonzero"/><path fill="#8f3013" d="M 202.082031 134.738281 C 202.234375 123.636719 202.578125 125.023438 203.0625 123.460938 C 203.535156 122.394531 202.761719 121.453125 202.238281 121.601562 C 201.914062 121.585938 201.582031 121.949219 200.878906 123.308594 C 200.007812 125 200.011719 125.25 199.855469 133.542969 C 199.84375 134.113281 199.664062 145.910156 200.203125 145.664062 L 200.214844 145.769531 C 202.085938 144.011719 201.941406 145.332031 202.082031 134.738281 Z M 202.082031 134.738281 " fill-opacity="1" fill-rule="nonzero"/><path fill="#8f3013" d="M 196.066406 213.980469 C 195.359375 212.921875 195.015625 212.527344 194.699219 212.6875 C 194.496094 212.695312 194.296875 213.160156 194.1875 213.367188 C 193.535156 214.585938 194.726562 215.324219 195.589844 217.925781 C 197.199219 223.0625 193.148438 229.027344 186.53125 228.476562 C 184.539062 228.3125 184.367188 228.480469 184.007812 229.269531 C 183.800781 229.535156 183.761719 229.90625 183.847656 230.035156 C 184.054688 230.867188 189.921875 231.707031 193.742188 228.660156 C 197.011719 226.230469 197.933594 223.648438 197.933594 220.566406 C 198 217.160156 197.121094 215.558594 196.066406 213.980469 Z M 196.066406 213.980469 " fill-opacity="1" fill-rule="nonzero"/><path fill="#8f3013" d="M 197.59375 121.910156 C 196.886719 120.898438 194.476562 121.171875 193.195312 121.519531 C 193.171875 121.527344 193.199219 121.644531 193.261719 121.820312 C 193.042969 122.433594 193.84375 123.402344 194.78125 123.402344 C 198.125 123.402344 190.539062 126.761719 189.710938 128.304688 C 189.628906 128.457031 189.566406 128.582031 189.535156 128.675781 L 189.191406 129.039062 L 189.660156 128.925781 C 191.0625 129.058594 196.160156 126.714844 197.191406 125.347656 C 198.152344 124.175781 198.0625 122.179688 197.59375 121.910156 Z M 197.59375 121.910156 " fill-opacity="1" fill-rule="nonzero"/><path fill="#8f3013" d="M 196.164062 194.605469 L 196.050781 194.820312 C 195.726562 194.835938 195.394531 195.945312 195.347656 196.3125 C 195.050781 197.507812 196.167969 200.507812 196.664062 204.324219 L 196.941406 206.449219 C 197.476562 204.710938 197.949219 203.660156 197.824219 200.617188 C 197.976562 197.507812 196.988281 196.140625 196.164062 194.605469 Z M 196.164062 194.605469 " fill-opacity="1" fill-rule="nonzero"/><path fill="#8f3013" d="M 157.847656 150.480469 C 156.386719 151.460938 156.296875 151.601562 156.917969 151.964844 C 158.679688 152.988281 159.320312 151.5625 162.535156 150.703125 C 162.632812 150.6875 169.878906 149.597656 169.097656 149.265625 L 169.125 149.257812 C 168.933594 149.222656 169.070312 149.242188 168.730469 149.15625 L 168.753906 149.148438 C 166.136719 148.800781 162.8125 147.15625 157.847656 150.480469 Z M 157.847656 150.480469 " fill-opacity="1" fill-rule="nonzero"/><path fill="#8f3013" d="M 176.707031 167.976562 C 176.898438 168.222656 177.097656 168.457031 177.304688 168.6875 C 177.78125 169.214844 178.984375 170.535156 179.53125 170.085938 C 179.78125 169.914062 180.257812 169.21875 179.617188 168.207031 C 179.671875 168.101562 179.644531 168.066406 179.550781 168.105469 C 179.40625 167.894531 179.226562 167.664062 179 167.410156 C 174.894531 162.730469 176.054688 160.394531 175.746094 155.960938 C 175.863281 155.511719 175.96875 155.1875 175.546875 154.980469 C 175.367188 154.667969 174.726562 154.53125 174.382812 154.773438 C 174.121094 154.800781 174.128906 154.851562 174.089844 155.160156 C 172.875 157.683594 173.199219 162.96875 176.199219 167.28125 C 176.292969 167.613281 176.480469 167.90625 176.707031 167.976562 Z M 176.707031 167.976562 " fill-opacity="1" fill-rule="nonzero"/><path fill="#8f3013" d="M 179.578125 191.65625 C 179.378906 192.808594 179.398438 192.832031 180.410156 192.480469 C 181.234375 192.332031 181.703125 191.394531 181.96875 190.59375 C 182.886719 187.820312 185.777344 185.703125 188.789062 186.449219 C 191.75 187.386719 192.121094 189.335938 193.304688 188.03125 C 193.742188 187.546875 194.113281 187.253906 193.15625 186.441406 C 192.257812 185.539062 190.738281 184.824219 189.164062 184.515625 C 189.042969 184.4375 181.101562 182.765625 179.578125 191.65625 Z M 179.578125 191.65625 " fill-opacity="1" fill-rule="nonzero"/><path fill="#8f3013" d="M 194.394531 191.839844 C 193.199219 192.386719 193.808594 192.445312 192.617188 194.671875 C 191.378906 196.984375 189.890625 197.714844 187.519531 197.707031 C 183.128906 197.6875 183.324219 194.300781 181.625 196.410156 C 181.359375 196.5625 181.269531 196.667969 181.375 196.863281 C 181.359375 196.902344 181.359375 196.933594 181.367188 196.957031 C 181.316406 197.546875 182.042969 198.125 183.78125 199.03125 C 186.078125 200.226562 188.917969 200.214844 191.113281 199.082031 C 193.5 197.847656 195.320312 194.710938 195.320312 192.804688 C 195.324219 191.472656 195.332031 191.414062 194.394531 191.839844 Z M 194.394531 191.839844 " fill-opacity="1" fill-rule="nonzero"/><path fill="#8f3013" d="M 181.644531 124.238281 C 181.429688 125.101562 182.632812 124.996094 182.929688 125.21875 C 182.9375 125.222656 182.964844 125.203125 183.011719 125.167969 C 183.269531 125.082031 183.449219 124.796875 184.289062 123.960938 C 185.414062 122.835938 185.828125 122.660156 187.375 122.660156 C 188.910156 122.660156 189.34375 122.839844 190.480469 123.949219 C 190.859375 124.320312 191.699219 125.109375 192.230469 125.0625 C 192.519531 125.082031 193.550781 124.925781 193.394531 124.242188 C 193.417969 123.96875 193.210938 123.699219 192.515625 122.789062 C 191.15625 121.003906 189.5625 120.363281 187.550781 120.441406 C 183.414062 120.4375 181.578125 123.90625 181.644531 124.238281 Z M 181.644531 124.238281 " fill-opacity="1" fill-rule="nonzero"/><g transform="matrix(1, 0, 0, 1, 128, 231)"><g clip-path="url(#590325e2bf)"><g fill="#8f3013" fill-opacity="1"><g transform="translate(6.180387, 5.356494)"><g><path d="M 12.546875 -1.875 L 13.75 2.78125 C 14.175781 4.445312 14.203125 5.820312 13.828125 6.90625 C 13.453125 7.988281 12.628906 8.691406 11.359375 9.015625 C 10.097656 9.347656 9.039062 9.132812 8.1875 8.375 C 7.34375 7.625 6.703125 6.40625 6.265625 4.71875 L 5.53125 1.890625 L 0.796875 3.109375 L 0.328125 1.28125 Z M 7.09375 4.53125 C 7.6875 6.800781 8.953125 7.6875 10.890625 7.1875 C 12.835938 6.6875 13.515625 5.300781 12.921875 3.03125 L 12.1875 0.171875 L 6.359375 1.671875 Z M 7.09375 4.53125 "/></g></g></g><g fill="#8f3013" fill-opacity="1"><g transform="translate(12.29138, 23.846539)"><g><path d="M 8.5 7.421875 C 8.09375 8.054688 7.785156 8.585938 7.578125 9.015625 C 7.378906 9.453125 7.285156 9.804688 7.296875 10.078125 L 7.1875 10.15625 L 6.046875 8.546875 C 6.109375 8.242188 6.234375 7.921875 6.421875 7.578125 C 6.609375 7.242188 6.863281 6.832031 7.1875 6.34375 C 7.71875 5.5625 8.082031 4.882812 8.28125 4.3125 C 8.476562 3.75 8.492188 3.21875 8.328125 2.71875 L 8.0625 2.328125 L 6.140625 -0.390625 L 1.859375 2.625 L 0.765625 1.078125 L 11.078125 -6.21875 L 14.09375 -1.953125 C 15.09375 -0.535156 15.617188 0.726562 15.671875 1.84375 C 15.722656 2.96875 15.238281 3.894531 14.21875 4.625 C 12.695312 5.695312 11.140625 5.503906 9.546875 4.046875 C 9.628906 4.554688 9.585938 5.070312 9.421875 5.59375 C 9.253906 6.125 8.945312 6.734375 8.5 7.421875 Z M 8.78125 1.875 C 10.132812 3.789062 11.585938 4.203125 13.140625 3.109375 C 14.679688 2.015625 14.773438 0.507812 13.421875 -1.40625 L 11.46875 -4.171875 L 6.828125 -0.890625 Z M 8.78125 1.875 "/></g></g></g><g fill="#8f3013" fill-opacity="1"><g transform="translate(25.053019, 39.462605)"><g><path d="M 8.09375 -9.78125 L 17 -3.859375 L 16.515625 -3.140625 L 9.1875 -8.015625 L 6.671875 -4.21875 L 13.15625 0.09375 L 12.6875 0.796875 L 6.203125 -3.515625 L 3.15625 1.0625 L 10.484375 5.9375 L 10.015625 6.65625 L 1.109375 0.734375 Z M 8.09375 -9.78125 "/></g></g></g><g fill="#8f3013" fill-opacity="1"><g transform="translate(42.539318, 49.466881)"><g><path d="M 6.890625 1.625 C 5.109375 1.257812 3.773438 0.625 2.890625 -0.28125 C 2.003906 -1.195312 1.648438 -2.3125 1.828125 -3.625 L 3.40625 -3.296875 C 3.257812 -2.191406 3.484375 -1.3125 4.078125 -0.65625 C 4.671875 0 5.65625 0.472656 7.03125 0.765625 C 8.238281 1.015625 9.207031 0.992188 9.9375 0.703125 C 10.664062 0.421875 11.113281 -0.113281 11.28125 -0.90625 C 11.375 -1.382812 11.332031 -1.804688 11.15625 -2.171875 C 10.976562 -2.535156 10.617188 -2.90625 10.078125 -3.28125 C 9.535156 -3.65625 8.75 -4.054688 7.71875 -4.484375 C 6.09375 -5.171875 4.894531 -5.863281 4.125 -6.5625 C 3.363281 -7.269531 3.085938 -8.101562 3.296875 -9.0625 C 3.515625 -10.125 4.171875 -10.820312 5.265625 -11.15625 C 6.367188 -11.488281 7.726562 -11.484375 9.34375 -11.140625 C 10.976562 -10.804688 12.191406 -10.25 12.984375 -9.46875 C 13.785156 -8.695312 14.140625 -7.773438 14.046875 -6.703125 L 12.484375 -7.03125 C 12.484375 -7.9375 12.195312 -8.648438 11.625 -9.171875 C 11.0625 -9.703125 10.203125 -10.085938 9.046875 -10.328125 C 7.921875 -10.554688 7.03125 -10.546875 6.375 -10.296875 C 5.71875 -10.054688 5.320312 -9.613281 5.1875 -8.96875 C 5.101562 -8.582031 5.144531 -8.226562 5.3125 -7.90625 C 5.488281 -7.59375 5.832031 -7.265625 6.34375 -6.921875 C 6.851562 -6.578125 7.601562 -6.195312 8.59375 -5.78125 C 9.8125 -5.25 10.769531 -4.75 11.46875 -4.28125 C 12.175781 -3.8125 12.675781 -3.289062 12.96875 -2.71875 C 13.257812 -2.15625 13.320312 -1.492188 13.15625 -0.734375 C 12.925781 0.359375 12.25 1.113281 11.125 1.53125 C 10.007812 1.945312 8.597656 1.976562 6.890625 1.625 Z M 6.890625 1.625 "/></g></g></g><g fill="#8f3013" fill-opacity="1"><g transform="translate(63.713532, 52.273668)"><g><path d="M -0.890625 -12.671875 L 9.640625 -14.53125 L 9.78125 -13.671875 L 1.109375 -12.140625 L 1.90625 -7.65625 L 9.578125 -9.015625 L 9.734375 -8.1875 L 2.0625 -6.828125 L 3.015625 -1.40625 L 11.6875 -2.9375 L 11.84375 -2.09375 L 1.3125 -0.234375 Z M -0.890625 -12.671875 "/></g></g></g><g fill="#8f3013" fill-opacity="1"><g transform="translate(83.277502, 47.449076)"><g><path d="M -5.546875 -11.421875 L -3.921875 -12.421875 L 7.765625 -8.171875 L 2.59375 -16.484375 L 3.9375 -17.328125 L 10.609375 -6.609375 L 9.8125 -6.109375 L -3.328125 -10.875 L 2.484375 -1.546875 L 1.125 -0.703125 Z M -5.546875 -11.421875 "/></g></g></g><g fill="#8f3013" fill-opacity="1"><g transform="translate(100.602269, 34.817573)"><g><path d="M -6.28125 -11.375 L -9.421875 -7.046875 L -10.109375 -7.546875 L -2.734375 -17.6875 L -2.046875 -17.1875 L -5.171875 -12.890625 L 4.34375 -5.96875 L 3.234375 -4.453125 Z M -6.28125 -11.375 "/></g></g></g><g fill="#8f3013" fill-opacity="1"><g transform="translate(111.41432, 17.52603)"><g><path d="M -11.859375 -4.5 L -9.140625 -14.859375 L -8.3125 -14.640625 L -10.546875 -6.109375 L -6.140625 -4.953125 L -4.15625 -12.5 L -3.34375 -12.28125 L -5.328125 -4.734375 L 0 -3.328125 L 2.234375 -11.859375 L 3.0625 -11.640625 L 0.34375 -1.28125 Z M -11.859375 -4.5 "/></g></g></g></g></g><g clip-path="url(#a45db066b5)"><path fill="#dbc3b8" d="M 132.441406 194.292969 L 242.691406 194.292969 L 242.691406 225.042969 L 132.441406 225.042969 Z M 132.441406 194.292969 " fill-opacity="1" fill-rule="nonzero"/></g><g fill="#8f3013" fill-opacity="1"><g transform="translate(169.717273, 204.401559)"><g><path d="M 5.34375 0.140625 C 3.96875 0.140625 2.882812 -0.125 2.09375 -0.65625 C 1.300781 -1.195312 0.867188 -1.960938 0.796875 -2.953125 L 2.015625 -2.953125 C 2.078125 -2.117188 2.378906 -1.503906 2.921875 -1.109375 C 3.460938 -0.710938 4.257812 -0.515625 5.3125 -0.515625 C 6.25 -0.515625 6.96875 -0.675781 7.46875 -1 C 7.96875 -1.332031 8.21875 -1.804688 8.21875 -2.421875 C 8.21875 -2.773438 8.117188 -3.078125 7.921875 -3.328125 C 7.734375 -3.578125 7.410156 -3.796875 6.953125 -3.984375 C 6.492188 -4.171875 5.847656 -4.347656 5.015625 -4.515625 C 3.703125 -4.765625 2.707031 -5.09375 2.03125 -5.5 C 1.363281 -5.90625 1.03125 -6.476562 1.03125 -7.21875 C 1.03125 -8.03125 1.410156 -8.644531 2.171875 -9.0625 C 2.941406 -9.476562 3.953125 -9.6875 5.203125 -9.6875 C 6.460938 -9.6875 7.441406 -9.457031 8.140625 -9 C 8.847656 -8.550781 9.257812 -7.929688 9.375 -7.140625 L 8.15625 -7.140625 C 8.019531 -7.796875 7.695312 -8.273438 7.1875 -8.578125 C 6.6875 -8.878906 5.992188 -9.03125 5.109375 -9.03125 C 4.242188 -9.03125 3.582031 -8.890625 3.125 -8.609375 C 2.675781 -8.328125 2.453125 -7.9375 2.453125 -7.4375 C 2.453125 -7.132812 2.535156 -6.878906 2.703125 -6.671875 C 2.878906 -6.460938 3.179688 -6.269531 3.609375 -6.09375 C 4.046875 -5.925781 4.664062 -5.757812 5.46875 -5.59375 C 6.445312 -5.394531 7.234375 -5.175781 7.828125 -4.9375 C 8.429688 -4.695312 8.878906 -4.390625 9.171875 -4.015625 C 9.472656 -3.640625 9.625 -3.160156 9.625 -2.578125 C 9.625 -1.722656 9.238281 -1.054688 8.46875 -0.578125 C 7.707031 -0.0976562 6.664062 0.140625 5.34375 0.140625 Z M 5.34375 0.140625 "/></g></g></g><g fill="#8f3013" fill-opacity="1"><g transform="translate(181.31222, 204.401559)"><g><path d="M 5.90625 0.140625 C 4.832031 0.140625 3.910156 -0.0507812 3.140625 -0.4375 C 2.367188 -0.832031 1.773438 -1.398438 1.359375 -2.140625 C 0.953125 -2.890625 0.75 -3.78125 0.75 -4.8125 C 0.75 -5.832031 0.953125 -6.707031 1.359375 -7.4375 C 1.773438 -8.164062 2.367188 -8.722656 3.140625 -9.109375 C 3.910156 -9.492188 4.832031 -9.6875 5.90625 -9.6875 C 6.976562 -9.6875 7.898438 -9.492188 8.671875 -9.109375 C 9.441406 -8.722656 10.03125 -8.164062 10.4375 -7.4375 C 10.84375 -6.707031 11.046875 -5.832031 11.046875 -4.8125 C 11.046875 -3.78125 10.84375 -2.890625 10.4375 -2.140625 C 10.03125 -1.398438 9.441406 -0.832031 8.671875 -0.4375 C 7.898438 -0.0507812 6.976562 0.140625 5.90625 0.140625 Z M 5.90625 -0.515625 C 7.082031 -0.515625 7.992188 -0.882812 8.640625 -1.625 C 9.285156 -2.375 9.609375 -3.4375 9.609375 -4.8125 C 9.609375 -6.15625 9.285156 -7.191406 8.640625 -7.921875 C 8.003906 -8.660156 7.09375 -9.03125 5.90625 -9.03125 C 4.71875 -9.03125 3.800781 -8.664062 3.15625 -7.9375 C 2.507812 -7.207031 2.1875 -6.164062 2.1875 -4.8125 C 2.1875 -3.4375 2.507812 -2.375 3.15625 -1.625 C 3.800781 -0.882812 4.71875 -0.515625 5.90625 -0.515625 Z M 5.90625 -0.515625 "/></g></g></g><g fill="#8f3013" fill-opacity="1"><g transform="translate(194.284876, 204.401559)"><g><path d="M 5.5 0.140625 C 3.914062 0.140625 2.769531 -0.210938 2.0625 -0.921875 C 1.363281 -1.628906 1.015625 -2.644531 1.015625 -3.96875 L 1.015625 -9.546875 L 2.421875 -9.546875 L 2.421875 -3.65625 C 2.421875 -2.632812 2.660156 -1.851562 3.140625 -1.3125 C 3.628906 -0.78125 4.414062 -0.515625 5.5 -0.515625 C 6.5625 -0.515625 7.332031 -0.773438 7.8125 -1.296875 C 8.300781 -1.828125 8.546875 -2.613281 8.546875 -3.65625 L 8.546875 -9.546875 L 9.96875 -9.546875 L 9.96875 -3.96875 C 9.96875 -2.644531 9.617188 -1.628906 8.921875 -0.921875 C 8.222656 -0.210938 7.082031 0.140625 5.5 0.140625 Z M 5.5 0.140625 "/></g></g></g><g fill="#8f3013" fill-opacity="1"><g transform="translate(143.783681, 223.151558)"><g><path d="M 5.8125 0.140625 C 4.1875 0.140625 2.9375 -0.285156 2.0625 -1.140625 C 1.1875 -1.992188 0.75 -3.21875 0.75 -4.8125 C 0.75 -6.363281 1.179688 -7.5625 2.046875 -8.40625 C 2.921875 -9.257812 4.164062 -9.6875 5.78125 -9.6875 C 7.101562 -9.6875 8.175781 -9.40625 9 -8.84375 C 9.832031 -8.289062 10.320312 -7.519531 10.46875 -6.53125 L 9.25 -6.53125 C 9.09375 -7.3125 8.710938 -7.921875 8.109375 -8.359375 C 7.515625 -8.804688 6.765625 -9.03125 5.859375 -9.03125 C 4.671875 -9.03125 3.757812 -8.664062 3.125 -7.9375 C 2.5 -7.207031 2.1875 -6.164062 2.1875 -4.8125 C 2.1875 -3.425781 2.503906 -2.363281 3.140625 -1.625 C 3.773438 -0.882812 4.6875 -0.515625 5.875 -0.515625 C 6.789062 -0.515625 7.539062 -0.734375 8.125 -1.171875 C 8.71875 -1.609375 9.09375 -2.222656 9.25 -3.015625 L 10.46875 -3.015625 C 10.320312 -2.023438 9.832031 -1.25 9 -0.6875 C 8.175781 -0.132812 7.113281 0.140625 5.8125 0.140625 Z M 5.8125 0.140625 "/></g></g></g><g fill="#8f3013" fill-opacity="1"><g transform="translate(155.965184, 223.151558)"><g><path d="M 7.8125 -2.484375 L 2.3125 -2.484375 L 1.078125 0 L 0.125 0 L 5.09375 -9.6875 L 5.828125 -9.6875 L 10.5 0 L 8.96875 0 Z M 7.5 -3.140625 L 5.15625 -8.15625 L 2.640625 -3.140625 Z M 7.5 -3.140625 "/></g></g></g><g fill="#8f3013" fill-opacity="1"><g transform="translate(167.76474, 223.151558)"><g><path d="M 4.15625 -8.890625 L 0.125 -8.890625 L 0.125 -9.546875 L 9.609375 -9.546875 L 9.609375 -8.890625 L 5.578125 -8.890625 L 5.578125 0 L 4.15625 0 Z M 4.15625 -8.890625 "/></g></g></g><g fill="#8f3013" fill-opacity="1"><g transform="translate(178.664012, 223.151558)"><g><path d="M 5.90625 0.140625 C 4.832031 0.140625 3.910156 -0.0507812 3.140625 -0.4375 C 2.367188 -0.832031 1.773438 -1.398438 1.359375 -2.140625 C 0.953125 -2.890625 0.75 -3.78125 0.75 -4.8125 C 0.75 -5.832031 0.953125 -6.707031 1.359375 -7.4375 C 1.773438 -8.164062 2.367188 -8.722656 3.140625 -9.109375 C 3.910156 -9.492188 4.832031 -9.6875 5.90625 -9.6875 C 6.976562 -9.6875 7.898438 -9.492188 8.671875 -9.109375 C 9.441406 -8.722656 10.03125 -8.164062 10.4375 -7.4375 C 10.84375 -6.707031 11.046875 -5.832031 11.046875 -4.8125 C 11.046875 -3.78125 10.84375 -2.890625 10.4375 -2.140625 C 10.03125 -1.398438 9.441406 -0.832031 8.671875 -0.4375 C 7.898438 -0.0507812 6.976562 0.140625 5.90625 0.140625 Z M 5.90625 -0.515625 C 7.082031 -0.515625 7.992188 -0.882812 8.640625 -1.625 C 9.285156 -2.375 9.609375 -3.4375 9.609375 -4.8125 C 9.609375 -6.15625 9.285156 -7.191406 8.640625 -7.921875 C 8.003906 -8.660156 7.09375 -9.03125 5.90625 -9.03125 C 4.71875 -9.03125 3.800781 -8.664062 3.15625 -7.9375 C 2.507812 -7.207031 2.1875 -6.164062 2.1875 -4.8125 C 2.1875 -3.4375 2.507812 -2.375 3.15625 -1.625 C 3.800781 -0.882812 4.71875 -0.515625 5.90625 -0.515625 Z M 5.90625 -0.515625 "/></g></g></g><g fill="#8f3013" fill-opacity="1"><g transform="translate(191.636667, 223.151558)"><g><path d="M 1.015625 -9.546875 L 2.421875 -9.546875 L 2.421875 -0.65625 L 8.4375 -0.65625 L 8.4375 0 L 1.015625 0 Z M 1.015625 -9.546875 "/></g></g></g><g fill="#8f3013" fill-opacity="1"><g transform="translate(201.485612, 223.151558)"><g><path d="M 1.5625 -9.546875 L 2.984375 -9.546875 L 2.984375 0 L 1.5625 0 Z M 1.5625 -9.546875 "/></g></g></g><g fill="#8f3013" fill-opacity="1"><g transform="translate(207.215085, 223.151558)"><g><path d="M 5.8125 0.140625 C 4.1875 0.140625 2.9375 -0.285156 2.0625 -1.140625 C 1.1875 -1.992188 0.75 -3.21875 0.75 -4.8125 C 0.75 -6.363281 1.179688 -7.5625 2.046875 -8.40625 C 2.921875 -9.257812 4.164062 -9.6875 5.78125 -9.6875 C 7.101562 -9.6875 8.175781 -9.40625 9 -8.84375 C 9.832031 -8.289062 10.320312 -7.519531 10.46875 -6.53125 L 9.25 -6.53125 C 9.09375 -7.3125 8.710938 -7.921875 8.109375 -8.359375 C 7.515625 -8.804688 6.765625 -9.03125 5.859375 -9.03125 C 4.671875 -9.03125 3.757812 -8.664062 3.125 -7.9375 C 2.5 -7.207031 2.1875 -6.164062 2.1875 -4.8125 C 2.1875 -3.425781 2.503906 -2.363281 3.140625 -1.625 C 3.773438 -0.882812 4.6875 -0.515625 5.875 -0.515625 C 6.789062 -0.515625 7.539062 -0.734375 8.125 -1.171875 C 8.71875 -1.609375 9.09375 -2.222656 9.25 -3.015625 L 10.46875 -3.015625 C 10.320312 -2.023438 9.832031 -1.25 9 -0.6875 C 8.175781 -0.132812 7.113281 0.140625 5.8125 0.140625 Z M 5.8125 0.140625 "/></g></g></g><g fill="#8f3013" fill-opacity="1"><g transform="translate(219.396588, 223.151558)"><g><path d="M 5.90625 0.140625 C 4.832031 0.140625 3.910156 -0.0507812 3.140625 -0.4375 C 2.367188 -0.832031 1.773438 -1.398438 1.359375 -2.140625 C 0.953125 -2.890625 0.75 -3.78125 0.75 -4.8125 C 0.75 -5.832031 0.953125 -6.707031 1.359375 -7.4375 C 1.773438 -8.164062 2.367188 -8.722656 3.140625 -9.109375 C 3.910156 -9.492188 4.832031 -9.6875 5.90625 -9.6875 C 6.976562 -9.6875 7.898438 -9.492188 8.671875 -9.109375 C 9.441406 -8.722656 10.03125 -8.164062 10.4375 -7.4375 C 10.84375 -6.707031 11.046875 -5.832031 11.046875 -4.8125 C 11.046875 -3.78125 10.84375 -2.890625 10.4375 -2.140625 C 10.03125 -1.398438 9.441406 -0.832031 8.671875 -0.4375 C 7.898438 -0.0507812 6.976562 0.140625 5.90625 0.140625 Z M 5.90625 -0.515625 C 7.082031 -0.515625 7.992188 -0.882812 8.640625 -1.625 C 9.285156 -2.375 9.609375 -3.4375 9.609375 -4.8125 C 9.609375 -6.15625 9.285156 -7.191406 8.640625 -7.921875 C 8.003906 -8.660156 7.09375 -9.03125 5.90625 -9.03125 C 4.71875 -9.03125 3.800781 -8.664062 3.15625 -7.9375 C 2.507812 -7.207031 2.1875 -6.164062 2.1875 -4.8125 C 2.1875 -3.4375 2.507812 -2.375 3.15625 -1.625 C 3.800781 -0.882812 4.71875 -0.515625 5.90625 -0.515625 Z M 5.90625 -0.515625 "/></g></g></g></svg>